  0
SECTION
  2
HEADER
  9
$ACADVER
  1
AC1009
  9
$INSBASE
 10
0.0
 20
0.0
 30
0.0
  9
$EXTMIN
 10
2770.393498671854104
 20
836.8096847945180343
 30
-0.0015258207003583
  9
$EXTMAX
 10
3038.6480660773490854
 20
985.0923353629254962
 30
0.0000000349246037
  9
$LIMMIN
 10
0.0
 20
0.0
  9
$LIMMAX
 10
420.0
 20
297.0
  9
$ORTHOMODE
 70
     1
  9
$REGENMODE
 70
     1
  9
$FILLMODE
 70
     1
  9
$QTEXTMODE
 70
     0
  9
$MIRRTEXT
 70
     0
  9
$DRAGMODE
 70
     2
  9
$LTSCALE
 40
1.0
  9
$OSMODE
 70
    63
  9
$ATTMODE
 70
     1
  9
$TEXTSIZE
 40
2.5
  9
$TRACEWID
 40
1.0
  9
$TEXTSTYLE
  7
STANDARD
  9
$CLAYER
  8
DIMENSIONS
  9
$CELTYPE
  6
BYLAYER
  9
$CECOLOR
 62
   256
  9
$DIMSCALE
 40
1.0
  9
$DIMASZ
 40
2.5
  9
$DIMEXO
 40
0.625
  9
$DIMDLI
 40
3.75
  9
$DIMRND
 40
0.0
  9
$DIMDLE
 40
0.0
  9
$DIMEXE
 40
1.25
  9
$DIMTP
 40
0.0
  9
$DIMTM
 40
0.0
  9
$DIMTXT
 40
2.5
  9
$DIMCEN
 40
2.5
  9
$DIMTSZ
 40
0.0
  9
$DIMTOL
 70
     0
  9
$DIMLIM
 70
     0
  9
$DIMTIH
 70
     0
  9
$DIMTOH
 70
     0
  9
$DIMSE1
 70
     0
  9
$DIMSE2
 70
     0
  9
$DIMTAD
 70
     1
  9
$DIMZIN
 70
     8
  9
$DIMBLK
  1

  9
$DIMASO
 70
     1
  9
$DIMSHO
 70
     1
  9
$DIMPOST
  1

  9
$DIMAPOST
  1

  9
$DIMALT
 70
     0
  9
$DIMALTD
 70
     3
  9
$DIMALTF
 40
0.03937007874016
  9
$DIMLFAC
 40
1.0
  9
$DIMTOFL
 70
     1
  9
$DIMTVP
 40
0.0
  9
$DIMTIX
 70
     0
  9
$DIMSOXD
 70
     0
  9
$DIMSAH
 70
     0
  9
$DIMBLK1
  1

  9
$DIMBLK2
  1

  9
$DIMSTYLE
  2
ISO-25
  9
$DIMCLRD
 70
     0
  9
$DIMCLRE
 70
     0
  9
$DIMCLRT
 70
     0
  9
$DIMTFAC
 40
1.0
  9
$DIMGAP
 40
0.625
  9
$LUNITS
 70
     2
  9
$LUPREC
 70
     4
  9
$SKETCHINC
 40
1.0
  9
$FILLETRAD
 40
0.5
  9
$AUNITS
 70
     0
  9
$AUPREC
 70
     0
  9
$MENU
  1
.
  9
$ELEVATION
 40
0.0
  9
$PELEVATION
 40
0.0
  9
$THICKNESS
 40
0.0
  9
$LIMCHECK
 70
     0
  9
$BLIPMODE
 70
     0
  9
$CHAMFERA
 40
0.0
  9
$CHAMFERB
 40
0.0
  9
$SKPOLY
 70
     0
  9
$TDCREATE
 40
2459676.5874421298503876
  9
$TDUPDATE
 40
2459676.6460532411001623
  9
$TDINDWG
 40
0.0586111111
  9
$TDUSRTIMER
 40
0.0586111111
  9
$USRTIMER
 70
     1
  9
$ANGBASE
 50
0.0
  9
$ANGDIR
 70
     0
  9
$PDMODE
 70
     0
  9
$PDSIZE
 40
0.0
  9
$PLINEWID
 40
0.0
  9
$COORDS
 70
     1
  9
$SPLFRAME
 70
     0
  9
$SPLINETYPE
 70
     6
  9
$SPLINESEGS
 70
     8
  9
$ATTDIA
 70
     1
  9
$ATTREQ
 70
     1
  9
$HANDLING
 70
     1
  9
$HANDSEED
  5
CF8
  9
$SURFTAB1
 70
     6
  9
$SURFTAB2
 70
     6
  9
$SURFTYPE
 70
     6
  9
$SURFU
 70
     6
  9
$SURFV
 70
     6
  9
$UCSNAME
  2

  9
$UCSORG
 10
0.0
 20
0.0
 30
0.0
  9
$UCSXDIR
 10
1.0
 20
0.0
 30
0.0
  9
$UCSYDIR
 10
0.0
 20
1.0
 30
0.0
  9
$PUCSNAME
  2

  9
$PUCSORG
 10
0.0
 20
0.0
 30
0.0
  9
$PUCSXDIR
 10
1.0
 20
0.0
 30
0.0
  9
$PUCSYDIR
 10
0.0
 20
1.0
 30
0.0
  9
$USERI1
 70
     0
  9
$USERI2
 70
     0
  9
$USERI3
 70
     0
  9
$USERI4
 70
     0
  9
$USERI5
 70
     0
  9
$USERR1
 40
0.0
  9
$USERR2
 40
0.0
  9
$USERR3
 40
0.0
  9
$USERR4
 40
0.0
  9
$USERR5
 40
0.0
  9
$WORLDVIEW
 70
     1
  9
$SHADEDGE
 70
     3
  9
$SHADEDIF
 70
    70
  9
$TILEMODE
 70
     1
  9
$MAXACTVP
 70
    64
  9
$PLIMCHECK
 70
     0
  9
$PEXTMIN
 10
0.0
 20
0.0
 30
0.0
  9
$PEXTMAX
 10
0.0
 20
0.0
 30
0.0
  9
$PLIMMIN
 10
0.0
 20
0.0
  9
$PLIMMAX
 10
12.0
 20
9.0
  9
$UNITMODE
 70
     0
  9
$VISRETAIN
 70
     1
  9
$PLINEGEN
 70
     0
  9
$PSLTSCALE
 70
     1
  0
ENDSEC
  0
SECTION
  2
TABLES
  0
TABLE
  2
VPORT
 70
     1
  0
VPORT
  2
*ACTIVE
 70
     0
 10
0.0
 20
0.0
 11
1.0
 21
1.0
 12
3037.9762150806450336
 22
916.6661915074780609
 13
0.0
 23
0.0
 14
10.0
 24
10.0
 15
10.0
 25
10.0
 16
0.0
 26
0.0
 36
1.0
 17
0.0
 27
0.0
 37
0.0
 40
272.228087575477673
 41
2.3630731102850051
 42
50.0
 43
0.0
 44
0.0
 50
0.0
 51
0.0
 71
     0
 72
  1000
 73
     1
 74
     3
 75
     0
 76
     1
 77
     0
 78
     0
  0
ENDTAB
  0
TABLE
  2
LTYPE
 70
     5
  0
LTYPE
  2
CONTINUOUS
 70
     0
  3
Solid line
 72
    65
 73
     0
 40
0.0
  0
LTYPE
  2
CENTER2
 70
     0
  3
Center (.5x) ___ _ ___ _ ___ _ ___ _ ___ _ ___
 72
    65
 73
     4
 40
28.5749999999999993
 49
19.0500000000000007
 49
-3.1749999999999989
 49
3.1749999999999989
 49
-3.1749999999999989
  0
LTYPE
  2
CENTER
 70
     0
  3
Center ____ _ ____ _ ____ _ ____ _ ____ _ ____
 72
    65
 73
     4
 40
50.7999999999999972
 49
31.75
 49
-6.3499999999999988
 49
6.3499999999999988
 49
-6.3499999999999988
  0
ENDTAB
  0
TABLE
  2
LAYER
 70
     6
  0
LAYER
  2
0
 70
     0
 62
     7
  6
CONTINUOUS
  0
LAYER
  2
DEFPOINTS
 70
     0
 62
     7
  6
CONTINUOUS
  0
LAYER
  2
OUTLINE
 70
     0
 62
     1
  6
CONTINUOUS
  0
LAYER
  2
COMPONENTS
 70
     0
 62
     3
  6
CONTINUOUS
  0
LAYER
  2
DIMENSIONS
 70
     0
 62
     2
  6
CONTINUOUS
  0
LAYER
  2
HOLES
 70
     0
 62
     6
  6
CONTINUOUS
  0
ENDTAB
  0
TABLE
  2
STYLE
 70
     6
  0
STYLE
  2
STANDARD
 70
     0
 40
0.0
 41
1.0
 50
0.0
 71
     0
 42
2.5
  3
txt
  4

  0
STYLE
  2
ANNOTATIVE
 70
     0
 40
0.0
 41
1.0
 50
0.0
 71
     0
 42
2.5
  3
txt
  4

  0
STYLE
  2

 70
     1
 40
0.0
 41
1.0
 50
0.0
 71
     0
 42
2.5
  3
ltypeshp.shx
  4

  0
ENDTAB
  0
TABLE
  2
VIEW
 70
     0
  0
ENDTAB
  0
TABLE
  2
UCS
 70
     0
  0
ENDTAB
  0
TABLE
  2
APPID
 70
    12
  0
APPID
  2
ACAD
 70
     0
  0
APPID
  2
ACAD_PSEXT
 70
     0
  0
APPID
  2
ACADANNOPO
 70
     0
  0
APPID
  2
ACADANNOTATIVE
 70
     0
  0
APPID
  2
ACAD_DSTYLE_DIMJAG
 70
     0
  0
APPID
  2
ACAD_DSTYLE_DIMTALN
 70
     0
  0
APPID
  2
ACAD_MLEADERVER
 70
     0
  0
APPID
  2
ACAD_NAV_VCDISPLAY
 70
     0
  0
APPID
  2
ACAD_EXEMPT_FROM_CAD_STANDARDS
 70
     0
  0
APPID
  2
ACAECLAYERSTANDARD
 70
     0
  0
APPID
  2
ACCMTRANSPARENCY
 70
     0
  0
APPID
  2
ACADANNOMONITORALERTICONDI
 70
     0
  0
ENDTAB
  0
TABLE
  2
DIMSTYLE
 70
     7
  0
DIMSTYLE
  2
STANDARD
 70
     0
  3

  4

  5

  6

  7

 40
1.0
 41
0.18
 42
0.0625
 43
0.38
 44
0.18
 45
0.0
 46
0.0
 47
0.0
 48
0.0
140
0.18
141
0.09
142
0.0
143
25.3999999999999986
144
1.0
145
0.0
146
1.0
147
0.09
 71
     0
 72
     0
 73
     1
 74
     1
 75
     0
 76
     0
 77
     0
 78
     0
170
     0
171
     2
172
     0
173
     0
174
     0
175
     0
176
     0
177
     0
178
     0
  0
DIMSTYLE
  2
ANNOTATIVE
 70
     0
  3

  4

  5

  6

  7

 40
0.0
 41
2.5
 42
0.625
 43
3.75
 44
1.25
 45
0.0
 46
0.0
 47
0.0
 48
0.0
140
2.5
141
2.5
142
0.0
143
0.03937007874016
144
1.0
145
0.0
146
1.0
147
0.625
 71
     0
 72
     0
 73
     0
 74
     0
 75
     0
 76
     0
 77
     1
 78
     8
170
     0
171
     3
172
     1
173
     0
174
     0
175
     0
176
     0
177
     0
178
     0
  0
DIMSTYLE
  2
ISO-25
 70
     0
  3

  4

  5

  6

  7

 40
1.0
 41
2.5
 42
0.625
 43
3.75
 44
1.25
 45
0.0
 46
0.0
 47
0.0
 48
0.0
140
2.5
141
2.5
142
0.0
143
0.03937007874016
144
1.0
145
0.0
146
1.0
147
0.625
 71
     0
 72
     0
 73
     0
 74
     0
 75
     0
 76
     0
 77
     1
 78
     8
170
     0
171
     3
172
     1
173
     0
174
     0
175
     0
176
     0
177
     0
178
     0
  0
ENDTAB
  0
ENDSEC
  0
SECTION
  2
BLOCKS
  0
BLOCK
  8
0
  2
$MODEL_SPACE
 70
     0
 10
0.0
 20
0.0
 30
0.0
  3
$MODEL_SPACE
  1

  0
ENDBLK
  5
21
  8
0
  0
BLOCK
 67
     1
  8
0
  2
$PAPER_SPACE
 70
     0
 10
0.0
 20
0.0
 30
0.0
  3
$PAPER_SPACE
  1

  0
ENDBLK
  5
D5
 67
     1
  8
0
  0
BLOCK
  8
0
  2
*D2
 70
     1
 10
0.0
 20
0.0
 30
0.0
  3
*D2
  1

  0
LINE
  5
30A
  8
0
 62
     0
 10
2559.1350978448867863
 20
973.3112634347249923
 30
0.0
 11
2559.1350978448867863
 21
978.9776025122914689
 31
0.0
  0
LINE
  5
30B
  8
0
 62
     0
 10
2571.1350978448858768
 20
973.3112634347249923
 30
0.0
 11
2571.1350978448858768
 21
978.9776025122914689
 31
0.0
  0
LINE
  5
30C
  8
0
 62
     0
 10
2561.6350978448867863
 20
977.7276025122913552
 30
0.0
 11
2568.6350978448858768
 21
977.7276025122913552
 31
0.0
  0
SOLID
  5
30D
  8
0
 62
     0
 10
2561.6350978448867863
 20
978.144269178957984
 30
0.0
 11
2561.6350978448867863
 21
977.3109358456249538
 31
0.0
 12
2559.1350978448867863
 22
977.7276025122913552
 32
0.0
 13
2559.1350978448867863
 23
977.7276025122913552
 33
0.0
  0
SOLID
  5
30E
  8
0
 62
     0
 10
2568.6350978448858768
 20
978.144269178957984
 30
0.0
 11
2568.6350978448858768
 21
977.3109358456249538
 31
0.0
 12
2571.1350978448858768
 22
977.7276025122913552
 32
0.0
 13
2571.1350978448858768
 23
977.7276025122913552
 33
0.0
  0
INSERT
  5
30F
  8
DIMENSIONS
  2
*U55
 10
0.0
 20
0.0
 30
0.0
  0
POINT
  5
310
  8
DEFPOINTS
 62
     0
 10
2559.1350978448867863
 20
972.6862634347249923
 30
0.0
  0
POINT
  5
311
  8
DEFPOINTS
 62
     0
 10
2571.1350978448858768
 20
972.6862634347249923
 30
0.0
  0
POINT
  5
312
  8
DEFPOINTS
 62
     0
 10
2571.1350978448858768
 20
977.7276025122913552
 30
0.0
  0
ENDBLK
  5
2BB
  8
0
  0
BLOCK
  8
0
  2
*D3
 70
     1
 10
0.0
 20
0.0
 30
0.0
  3
*D3
  1

  0
LINE
  5
2E7
  8
0
 62
     0
 10
2548.1350978448858768
 20
973.3112634347249923
 30
0.0
 11
2548.1350978448858768
 21
978.9776025122905594
 31
0.0
  0
LINE
  5
2E8
  8
0
 62
     0
 10
2559.1350978448867863
 20
973.3112634347249923
 30
0.0
 11
2559.1350978448867863
 21
978.9776025122905594
 31
0.0
  0
LINE
  5
2E9
  8
0
 62
     0
 10
2550.6350978448867863
 20
977.7276025122904457
 30
0.0
 11
2556.6350978448858768
 21
977.7276025122904457
 31
0.0
  0
SOLID
  5
2EA
  8
0
 62
     0
 10
2550.6350978448867863
 20
978.1442691789570745
 30
0.0
 11
2550.6350978448867863
 21
977.3109358456238169
 31
0.0
 12
2548.1350978448858768
 22
977.7276025122904457
 32
0.0
 13
2548.1350978448858768
 23
977.7276025122904457
 33
0.0
  0
SOLID
  5
2EB
  8
0
 62
     0
 10
2556.6350978448858768
 20
978.1442691789570745
 30
0.0
 11
2556.6350978448858768
 21
977.3109358456238169
 31
0.0
 12
2559.1350978448867863
 22
977.7276025122904457
 32
0.0
 13
2559.1350978448867863
 23
977.7276025122904457
 33
0.0
  0
INSERT
  5
2EC
  8
DIMENSIONS
  2
*U54
 10
0.0
 20
0.0
 30
0.0
  0
POINT
  5
2ED
  8
DEFPOINTS
 62
     0
 10
2548.1350978448858768
 20
972.6862634347249923
 30
0.0
  0
POINT
  5
2EE
  8
DEFPOINTS
 62
     0
 10
2559.1350978448867863
 20
972.6862634347249923
 30
0.0
  0
POINT
  5
2EF
  8
DEFPOINTS
 62
     0
 10
2559.1350978448867863
 20
977.7276025122904457
 30
0.0
  0
ENDBLK
  5
2DC
  8
0
  0
BLOCK
  8
0
  2
*D4
 70
     1
 10
0.0
 20
0.0
 30
0.0
  3
*D4
  1

  0
LINE
  5
321
  8
0
 62
     0
 10
2541.6350978448867863
 20
971.7112634347249696
 30
0.0
 11
2541.6350978448867863
 21
979.5342577582372314
 31
0.0
  0
LINE
  5
322
  8
0
 62
     0
 10
2548.1350978448858768
 20
973.3112634347249923
 30
0.0
 11
2548.1350978448858768
 21
979.5342577582372314
 31
0.0
  0
LINE
  5
323
  8
0
 62
     0
 10
2544.1350978448867863
 20
978.2842577582371177
 30
0.0
 11
2545.6350978448867863
 21
978.2842577582371177
 31
0.0
  0
SOLID
  5
324
  8
0
 62
     0
 10
2544.1350978448867863
 20
978.7009244249037465
 30
0.0
 11
2544.1350978448867863
 21
977.8675910915707163
 31
0.0
 12
2541.6350978448867863
 22
978.2842577582371177
 32
0.0
 13
2541.6350978448867863
 23
978.2842577582371177
 33
0.0
  0
SOLID
  5
325
  8
0
 62
     0
 10
2545.6350978448867863
 20
978.7009244249037465
 30
0.0
 11
2545.6350978448867863
 21
977.8675910915707163
 31
0.0
 12
2548.1350978448858768
 22
978.2842577582371177
 32
0.0
 13
2548.1350978448858768
 23
978.2842577582371177
 33
0.0
  0
INSERT
  5
326
  8
DIMENSIONS
  2
*U56
 10
0.0
 20
0.0
 30
0.0
  0
POINT
  5
327
  8
DEFPOINTS
 62
     0
 10
2541.6350978448867863
 20
971.0862634347248559
 30
0.0
  0
POINT
  5
328
  8
DEFPOINTS
 62
     0
 10
2548.1350978448858768
 20
972.6862634347249923
 30
0.0
  0
POINT
  5
329
  8
DEFPOINTS
 62
     0
 10
2548.1350978448858768
 20
978.2842577582371177
 30
0.0
  0
ENDBLK
  5
316
  8
0
  0
BLOCK
  8
0
  2
*D5
 70
     1
 10
0.0
 20
0.0
 30
0.0
  3
*D5
  1

  0
LINE
  5
33A
  8
0
 62
     0
 10
2540.0100978448867863
 20
901.086263434725538
 30
0.0
 11
2530.7038318331019582
 21
901.086263434725538
 31
0.0
  0
LINE
  5
33B
  8
0
 62
     0
 10
2540.0100978448867863
 20
888.0862634347254243
 30
0.0
 11
2530.7038318331019582
 21
888.0862634347254243
 31
0.0
  0
LINE
  5
33C
  8
0
 62
     0
 10
2531.9538318331019582
 20
898.5862634347254243
 30
0.0
 11
2531.9538318331019582
 21
890.5862634347254243
 31
0.0
  0
SOLID
  5
33D
  8
0
 62
     0
 10
2531.5371651664349884
 20
898.5862634347254243
 30
0.0
 11
2532.3704984997680185
 21
898.5862634347254243
 31
0.0
 12
2531.9538318331019582
 22
901.086263434725538
 32
0.0
 13
2531.9538318331019582
 23
901.086263434725538
 33
0.0
  0
SOLID
  5
33E
  8
0
 62
     0
 10
2531.5371651664349884
 20
890.5862634347254243
 30
0.0
 11
2532.3704984997680185
 21
890.5862634347254243
 31
0.0
 12
2531.9538318331019582
 22
888.0862634347254243
 32
0.0
 13
2531.9538318331019582
 23
888.0862634347254243
 33
0.0
  0
INSERT
  5
33F
  8
DIMENSIONS
  2
*U57
 10
0.0
 20
0.0
 30
0.0
  0
POINT
  5
340
  8
DEFPOINTS
 62
     0
 10
2540.6350978448881506
 20
901.086263434725538
 30
0.0
  0
POINT
  5
341
  8
DEFPOINTS
 62
     0
 10
2540.6350978448881506
 20
888.0862634347254243
 30
0.0
  0
POINT
  5
342
  8
DEFPOINTS
 62
     0
 10
2531.9538318331019582
 20
888.0862634347254243
 30
0.0
  0
ENDBLK
  5
32F
  8
0
  0
BLOCK
  8
0
  2
*D6
 70
     1
 10
0.0
 20
0.0
 30
0.0
  3
*D6
  1

  0
LINE
  5
356
  8
0
 62
     0
 10
2541.0100978448881506
 20
881.0862634347254243
 30
0.0
 11
2527.022036696529085
 21
881.0862634347254243
 31
0.0
  0
LINE
  5
357
  8
0
 62
     0
 10
2540.0100978448867863
 20
886.0862634347254243
 30
0.0
 11
2527.022036696529085
 21
886.0862634347254243
 31
0.0
  0
LINE
  5
358
  8
0
 62
     0
 10
2528.2720366965299945
 20
878.5862634347253106
 30
0.0
 11
2528.2720366965299945
 21
876.086263434725538
 31
0.0
  0
LINE
  5
359
  8
0
 62
     0
 10
2528.2720366965299945
 20
888.586263434725538
 30
0.0
 11
2528.2720366965299945
 21
891.0862634347253106
 31
0.0
  0
LINE
  5
35A
  8
0
 62
     0
 10
2528.2720366965299945
 20
881.0862634347254243
 30
0.0
 11
2528.2720366965299945
 21
886.0862634347254243
 31
0.0
  0
SOLID
  5
35B
  8
0
 62
     0
 10
2527.8553700298630247
 20
878.5862634347253106
 30
0.0
 11
2528.6887033631960549
 21
878.5862634347253106
 31
0.0
 12
2528.2720366965299945
 22
881.0862634347254243
 32
0.0
 13
2528.2720366965299945
 23
881.0862634347254243
 33
0.0
  0
SOLID
  5
35C
  8
0
 62
     0
 10
2527.8553700298630247
 20
888.586263434725538
 30
0.0
 11
2528.6887033631960549
 21
888.586263434725538
 31
0.0
 12
2528.2720366965299945
 22
886.0862634347254243
 32
0.0
 13
2528.2720366965299945
 23
886.0862634347254243
 33
0.0
  0
INSERT
  5
35D
  8
DIMENSIONS
  2
*U58
 10
0.0
 20
0.0
 30
0.0
  0
POINT
  5
35E
  8
DEFPOINTS
 62
     0
 10
2541.6350978448867863
 20
881.0862634347254243
 30
0.0
  0
POINT
  5
35F
  8
DEFPOINTS
 62
     0
 10
2540.6350978448881506
 20
886.0862634347254243
 30
0.0
  0
POINT
  5
360
  8
DEFPOINTS
 62
     0
 10
2528.2720366965299945
 20
886.0862634347254243
 30
0.0
  0
ENDBLK
  5
349
  8
0
  0
BLOCK
  8
0
  2
*D7
 70
     1
 10
0.0
 20
0.0
 30
0.0
  3
*D7
  1

  0
LINE
  5
383
  8
0
 62
     0
 10
2541.0100978448881506
 20
971.0862634347254243
 30
0.0
 11
2531.9866445191350977
 21
971.0862634347254243
 31
0.0
  0
LINE
  5
384
  8
0
 62
     0
 10
2540.0100978448867863
 20
966.0862634347253106
 30
0.0
 11
2531.9866445191350977
 21
966.0862634347253106
 31
0.0
  0
LINE
  5
385
  8
0
 62
     0
 10
2533.2366445191350977
 20
973.5862634347254243
 30
0.0
 11
2533.2366445191350977
 21
976.086263434725538
 31
0.0
  0
LINE
  5
386
  8
0
 62
     0
 10
2533.2366445191350977
 20
963.586263434725538
 30
0.0
 11
2533.2366445191350977
 21
961.0862634347254243
 31
0.0
  0
LINE
  5
387
  8
0
 62
     0
 10
2533.2366445191350977
 20
971.0862634347254243
 30
0.0
 11
2533.2366445191350977
 21
966.0862634347253106
 31
0.0
  0
SOLID
  5
388
  8
0
 62
     0
 10
2532.8199778524681278
 20
973.5862634347254243
 30
0.0
 11
2533.6533111858020675
 21
973.5862634347254243
 31
0.0
 12
2533.2366445191350977
 22
971.0862634347254243
 32
0.0
 13
2533.2366445191350977
 23
971.0862634347254243
 33
0.0
  0
SOLID
  5
389
  8
0
 62
     0
 10
2532.8199778524681278
 20
963.586263434725538
 30
0.0
 11
2533.6533111858020675
 21
963.586263434725538
 31
0.0
 12
2533.2366445191350977
 22
966.0862634347253106
 32
0.0
 13
2533.2366445191350977
 23
966.0862634347253106
 33
0.0
  0
INSERT
  5
38A
  8
DIMENSIONS
  2
*U59
 10
0.0
 20
0.0
 30
0.0
  0
POINT
  5
38B
  8
DEFPOINTS
 62
     0
 10
2541.6350978448867863
 20
971.0862634347254243
 30
0.0
  0
POINT
  5
38C
  8
DEFPOINTS
 62
     0
 10
2540.6350978448881506
 20
966.0862634347253106
 30
0.0
  0
POINT
  5
38D
  8
DEFPOINTS
 62
     0
 10
2533.2366445191350977
 20
966.0862634347253106
 30
0.0
  0
ENDBLK
  5
365
  8
0
  0
BLOCK
  8
0
  2
*D8
 70
     1
 10
0.0
 20
0.0
 30
0.0
  3
*D8
  1

  0
LINE
  5
39C
  8
0
 62
     0
 10
2540.0100978448867863
 20
900.086263434725538
 30
0.0
 11
2534.2311642285098969
 21
900.086263434725538
 31
0.0
  0
LINE
  5
39D
  8
0
 62
     0
 10
2540.0100978448867863
 20
889.0862634347254243
 30
0.0
 11
2534.2311642285098969
 21
889.0862634347254243
 31
0.0
  0
LINE
  5
39E
  8
0
 62
     0
 10
2535.4811642285098969
 20
897.5862634347254243
 30
0.0
 11
2535.4811642285098969
 21
891.5862634347254243
 31
0.0
  0
SOLID
  5
39F
  8
0
 62
     0
 10
2535.0644975618429271
 20
897.5862634347254243
 30
0.0
 11
2535.8978308951759573
 21
897.5862634347254243
 31
0.0
 12
2535.4811642285098969
 22
900.086263434725538
 32
0.0
 13
2535.4811642285098969
 23
900.086263434725538
 33
0.0
  0
SOLID
  5
3A0
  8
0
 62
     0
 10
2535.0644975618429271
 20
891.5862634347254243
 30
0.0
 11
2535.8978308951759573
 21
891.5862634347254243
 31
0.0
 12
2535.4811642285098969
 22
889.0862634347254243
 32
0.0
 13
2535.4811642285098969
 23
889.0862634347254243
 33
0.0
  0
INSERT
  5
3A1
  8
DIMENSIONS
  2
*U60
 10
0.0
 20
0.0
 30
0.0
  0
POINT
  5
3A2
  8
DEFPOINTS
 62
     0
 10
2540.6350978448881506
 20
900.086263434725538
 30
0.0
  0
POINT
  5
3A3
  8
DEFPOINTS
 62
     0
 10
2540.6350978448881506
 20
889.0862634347254243
 30
0.0
  0
POINT
  5
3A4
  8
DEFPOINTS
 62
     0
 10
2535.4811642285098969
 20
889.0862634347254243
 30
0.0
  0
ENDBLK
  5
391
  8
0
  0
BLOCK
  8
0
  2
*D9
 70
     1
 10
0.0
 20
0.0
 30
0.0
  3
*D9
  1

  0
LINE
  5
3B4
  8
0
 62
     0
 10
2540.0100978448867863
 20
900.086263434725538
 30
0.0
 11
2534.2311642285098969
 21
900.086263434725538
 31
0.0
  0
LINE
  5
3B5
  8
0
 62
     0
 10
2540.0100978448867863
 20
915.0862634347253106
 30
0.0
 11
2534.2311642285098969
 21
915.0862634347253106
 31
0.0
  0
LINE
  5
3B6
  8
0
 62
     0
 10
2535.4811642285098969
 20
902.5862634347253106
 30
0.0
 11
2535.4811642285098969
 21
912.586263434725538
 31
0.0
  0
SOLID
  5
3B7
  8
0
 62
     0
 10
2535.0644975618429271
 20
902.5862634347253106
 30
0.0
 11
2535.8978308951759573
 21
902.5862634347253106
 31
0.0
 12
2535.4811642285098969
 22
900.086263434725538
 32
0.0
 13
2535.4811642285098969
 23
900.086263434725538
 33
0.0
  0
SOLID
  5
3B8
  8
0
 62
     0
 10
2535.0644975618429271
 20
912.586263434725538
 30
0.0
 11
2535.8978308951759573
 21
912.586263434725538
 31
0.0
 12
2535.4811642285098969
 22
915.0862634347253106
 32
0.0
 13
2535.4811642285098969
 23
915.0862634347253106
 33
0.0
  0
INSERT
  5
3B9
  8
DIMENSIONS
  2
*U61
 10
0.0
 20
0.0
 30
0.0
  0
POINT
  5
3BA
  8
DEFPOINTS
 62
     0
 10
2540.6350978448881506
 20
900.086263434725538
 30
0.0
  0
POINT
  5
3BB
  8
DEFPOINTS
 62
     0
 10
2540.6350978448881506
 20
915.0862634347253106
 30
0.0
  0
POINT
  5
3BC
  8
DEFPOINTS
 62
     0
 10
2535.4811642285098969
 20
915.0862634347253106
 30
0.0
  0
ENDBLK
  5
3A9
  8
0
  0
BLOCK
  8
0
  2
*D10
 70
     1
 10
0.0
 20
0.0
 30
0.0
  3
*D10
  1

  0
LINE
  5
6C0
  8
DIMENSIONS
 62
     0
 10
2615.9937945904989647
 20
923.2915025208232009
 30
0.0
 11
2639.3272955811748943
 21
923.2915025208232009
 31
0.0
  0
LINE
  5
6C1
  8
DIMENSIONS
 62
     0
 10
2615.9937945904989647
 20
912.2915025208232009
 30
0.0
 11
2639.3272955811748943
 21
912.2915025208232009
 31
0.0
  0
LINE
  5
6C2
  8
DIMENSIONS
 62
     0
 10
2638.0772955811748943
 20
920.7915025208230873
 30
0.0
 11
2638.0772955811748943
 21
914.7915025208233146
 31
0.0
  0
SOLID
  5
6C3
  8
DIMENSIONS
 62
     0
 10
2637.660628914508834
 20
920.7915025208230873
 30
0.0
 11
2638.4939622478418642
 21
920.7915025208230873
 31
0.0
 12
2638.0772955811748943
 22
923.2915025208232009
 32
0.0
 13
2638.0772955811748943
 23
923.2915025208232009
 33
0.0
  0
SOLID
  5
6C4
  8
DIMENSIONS
 62
     0
 10
2637.660628914508834
 20
914.7915025208233146
 30
0.0
 11
2638.4939622478418642
 21
914.7915025208233146
 31
0.0
 12
2638.0772955811748943
 22
912.2915025208232009
 32
0.0
 13
2638.0772955811748943
 23
912.2915025208232009
 33
0.0
  0
INSERT
  5
6C5
  8
DIMENSIONS
  2
*U68
 10
0.0
 20
0.0
 30
0.0
  0
POINT
  5
6C6
  8
DEFPOINTS
 62
     0
 10
2615.3687945904980552
 20
923.2915025208232009
 30
0.0
  0
POINT
  5
6C7
  8
DEFPOINTS
 62
     0
 10
2615.3687945904980552
 20
912.2915025208232009
 30
0.0
  0
POINT
  5
6C8
  8
DEFPOINTS
 62
     0
 10
2638.0772955811748943
 20
912.2915025208232009
 30
0.0
  0
ENDBLK
  5
47A
  8
0
  0
BLOCK
  8
0
  2
*D11
 70
     1
 10
0.0
 20
0.0
 30
0.0
  3
*D11
  1

  0
LINE
  5
6C9
  8
DIMENSIONS
 62
     0
 10
2615.9937945904989647
 20
912.2915025208232009
 30
0.0
 11
2639.3272955811748943
 21
912.2915025208232009
 31
0.0
  0
LINE
  5
6CA
  8
DIMENSIONS
 62
     0
 10
2615.9937945904989647
 20
900.2915025208230873
 30
0.0
 11
2639.3272955811748943
 21
900.2915025208230873
 31
0.0
  0
LINE
  5
6CB
  8
DIMENSIONS
 62
     0
 10
2638.0772955811748943
 20
909.7915025208232009
 30
0.0
 11
2638.0772955811748943
 21
902.7915025208232009
 31
0.0
  0
SOLID
  5
6CC
  8
DIMENSIONS
 62
     0
 10
2637.660628914508834
 20
909.7915025208232009
 30
0.0
 11
2638.4939622478418642
 21
909.7915025208232009
 31
0.0
 12
2638.0772955811748943
 22
912.2915025208232009
 32
0.0
 13
2638.0772955811748943
 23
912.2915025208232009
 33
0.0
  0
SOLID
  5
6CD
  8
DIMENSIONS
 62
     0
 10
2637.660628914508834
 20
902.7915025208232009
 30
0.0
 11
2638.4939622478418642
 21
902.7915025208232009
 31
0.0
 12
2638.0772955811748943
 22
900.2915025208230873
 32
0.0
 13
2638.0772955811748943
 23
900.2915025208230873
 33
0.0
  0
INSERT
  5
6CE
  8
DIMENSIONS
  2
*U69
 10
0.0
 20
0.0
 30
0.0
  0
POINT
  5
6CF
  8
DEFPOINTS
 62
     0
 10
2615.3687945904980552
 20
912.2915025208232009
 30
0.0
  0
POINT
  5
6D0
  8
DEFPOINTS
 62
     0
 10
2615.3687945904980552
 20
900.2915025208230873
 30
0.0
  0
POINT
  5
6D1
  8
DEFPOINTS
 62
     0
 10
2638.0772955811748943
 20
900.2915025208230873
 30
0.0
  0
ENDBLK
  5
492
  8
0
  0
BLOCK
  8
0
  2
*D12
 70
     1
 10
0.0
 20
0.0
 30
0.0
  3
*D12
  1

  0
LINE
  5
6D2
  8
DIMENSIONS
 62
     0
 10
2615.9937945904989647
 20
900.2915025208230873
 30
0.0
 11
2639.3272955811748943
 21
900.2915025208230873
 31
0.0
  0
LINE
  5
6D3
  8
DIMENSIONS
 62
     0
 10
2615.9937945904989647
 20
888.2915025208232009
 30
0.0
 11
2639.3272955811748943
 21
888.2915025208232009
 31
0.0
  0
LINE
  5
6D4
  8
DIMENSIONS
 62
     0
 10
2638.0772955811748943
 20
897.7915025208230873
 30
0.0
 11
2638.0772955811748943
 21
890.7915025208232009
 31
0.0
  0
SOLID
  5
6D5
  8
DIMENSIONS
 62
     0
 10
2637.660628914508834
 20
897.7915025208230873
 30
0.0
 11
2638.4939622478418642
 21
897.7915025208230873
 31
0.0
 12
2638.0772955811748943
 22
900.2915025208230873
 32
0.0
 13
2638.0772955811748943
 23
900.2915025208230873
 33
0.0
  0
SOLID
  5
6D6
  8
DIMENSIONS
 62
     0
 10
2637.660628914508834
 20
890.7915025208232009
 30
0.0
 11
2638.4939622478418642
 21
890.7915025208232009
 31
0.0
 12
2638.0772955811748943
 22
888.2915025208232009
 32
0.0
 13
2638.0772955811748943
 23
888.2915025208232009
 33
0.0
  0
INSERT
  5
6D7
  8
DIMENSIONS
  2
*U70
 10
0.0
 20
0.0
 30
0.0
  0
POINT
  5
6D8
  8
DEFPOINTS
 62
     0
 10
2615.3687945904980552
 20
900.2915025208230873
 30
0.0
  0
POINT
  5
6D9
  8
DEFPOINTS
 62
     0
 10
2615.3687945904980552
 20
888.2915025208232009
 30
0.0
  0
POINT
  5
6DA
  8
DEFPOINTS
 62
     0
 10
2638.0772955811748943
 20
888.2915025208232009
 30
0.0
  0
ENDBLK
  5
4AA
  8
0
  0
BLOCK
  8
0
  2
*D13
 70
     1
 10
0.0
 20
0.0
 30
0.0
  3
*D13
  1

  0
LINE
  5
6DB
  8
DIMENSIONS
 62
     0
 10
2615.9937945904989647
 20
888.2915025208232009
 30
0.0
 11
2639.3272955811748943
 21
888.2915025208232009
 31
0.0
  0
LINE
  5
6DC
  8
DIMENSIONS
 62
     0
 10
2615.9937945904989647
 20
877.2915025208233146
 30
0.0
 11
2639.3272955811748943
 21
877.2915025208233146
 31
0.0
  0
LINE
  5
6DD
  8
DIMENSIONS
 62
     0
 10
2638.0772955811748943
 20
885.7915025208232009
 30
0.0
 11
2638.0772955811748943
 21
879.7915025208230873
 31
0.0
  0
SOLID
  5
6DE
  8
DIMENSIONS
 62
     0
 10
2637.660628914508834
 20
885.7915025208232009
 30
0.0
 11
2638.4939622478418642
 21
885.7915025208232009
 31
0.0
 12
2638.0772955811748943
 22
888.2915025208232009
 32
0.0
 13
2638.0772955811748943
 23
888.2915025208232009
 33
0.0
  0
SOLID
  5
6DF
  8
DIMENSIONS
 62
     0
 10
2637.660628914508834
 20
879.7915025208230873
 30
0.0
 11
2638.4939622478418642
 21
879.7915025208230873
 31
0.0
 12
2638.0772955811748943
 22
877.2915025208233146
 32
0.0
 13
2638.0772955811748943
 23
877.2915025208233146
 33
0.0
  0
INSERT
  5
6E0
  8
DIMENSIONS
  2
*U71
 10
0.0
 20
0.0
 30
0.0
  0
POINT
  5
6E1
  8
DEFPOINTS
 62
     0
 10
2615.3687945904980552
 20
888.2915025208232009
 30
0.0
  0
POINT
  5
6E2
  8
DEFPOINTS
 62
     0
 10
2615.3687945904980552
 20
877.2915025208233146
 30
0.0
  0
POINT
  5
6E3
  8
DEFPOINTS
 62
     0
 10
2638.0772955811748943
 20
877.2915025208233146
 30
0.0
  0
ENDBLK
  5
4C2
  8
0
  0
BLOCK
  8
0
  2
*D14
 70
     1
 10
0.0
 20
0.0
 30
0.0
  3
*D14
  1

  0
LINE
  5
4E5
  8
DIMENSIONS
 62
     0
 10
2541.6350978448867863
 20
971.7112634347249696
 30
0.0
 11
2541.6350978448867863
 21
1007.222947758222972
 31
0.0
  0
LINE
  5
4E6
  8
DIMENSIONS
 62
     0
 10
2600.6350978448858768
 20
971.7112634347249696
 30
0.0
 11
2600.6350978448858768
 21
1007.222947758222972
 31
0.0
  0
LINE
  5
4E7
  8
DIMENSIONS
 62
     0
 10
2544.1350978448867863
 20
1005.972947758222972
 30
0.0
 11
2598.1350978448858768
 21
1005.972947758222972
 31
0.0
  0
SOLID
  5
4E8
  8
DIMENSIONS
 62
     0
 10
2544.1350978448867863
 20
1006.3896144248900555
 30
0.0
 11
2544.1350978448867863
 21
1005.5562810915570253
 31
0.0
 12
2541.6350978448867863
 22
1005.972947758222972
 32
0.0
 13
2541.6350978448867863
 23
1005.972947758222972
 33
0.0
  0
SOLID
  5
4E9
  8
DIMENSIONS
 62
     0
 10
2598.1350978448858768
 20
1006.3896144248900555
 30
0.0
 11
2598.1350978448858768
 21
1005.5562810915570253
 31
0.0
 12
2600.6350978448858768
 22
1005.972947758222972
 32
0.0
 13
2600.6350978448858768
 23
1005.972947758222972
 33
0.0
  0
INSERT
  5
4EA
  8
DIMENSIONS
  2
*U62
 10
0.0
 20
0.0
 30
0.0
  0
POINT
  5
4EB
  8
DEFPOINTS
 62
     0
 10
2541.6350978448867863
 20
971.0862634347248559
 30
0.0
  0
POINT
  5
4EC
  8
DEFPOINTS
 62
     0
 10
2600.6350978448858768
 20
971.0862634347248559
 30
0.0
  0
POINT
  5
4ED
  8
DEFPOINTS
 62
     0
 10
2600.6350978448858768
 20
1005.972947758222972
 30
0.0
  0
ENDBLK
  5
4DA
  8
0
  0
BLOCK
  8
0
  2
*D15
 70
     1
 10
0.0
 20
0.0
 30
0.0
  3
*D15
  1

  0
LINE
  5
6E4
  8
DIMENSIONS
 62
     0
 10
2613.8937945904990556
 20
930.2915025208232009
 30
0.0
 11
2654.2933512345362033
 21
930.2915025208232009
 31
0.0
  0
LINE
  5
6E5
  8
DIMENSIONS
 62
     0
 10
2613.8937945904990556
 20
870.2915025208232009
 30
0.0
 11
2654.2933512345362033
 21
870.2915025208232009
 31
0.0
  0
LINE
  5
6E6
  8
DIMENSIONS
 62
     0
 10
2653.0433512345362033
 20
927.7915025208232009
 30
0.0
 11
2653.0433512345362033
 21
872.7915025208230873
 31
0.0
  0
SOLID
  5
6E7
  8
DIMENSIONS
 62
     0
 10
2652.6266845678687787
 20
927.7915025208232009
 30
0.0
 11
2653.4600179012031731
 21
927.7915025208232009
 31
0.0
 12
2653.0433512345362033
 22
930.2915025208232009
 32
0.0
 13
2653.0433512345362033
 23
930.2915025208232009
 33
0.0
  0
SOLID
  5
6E8
  8
DIMENSIONS
 62
     0
 10
2652.6266845678687787
 20
872.7915025208230873
 30
0.0
 11
2653.4600179012031731
 21
872.7915025208230873
 31
0.0
 12
2653.0433512345362033
 22
870.2915025208232009
 32
0.0
 13
2653.0433512345362033
 23
870.2915025208232009
 33
0.0
  0
INSERT
  5
6E9
  8
DIMENSIONS
  2
*U72
 10
0.0
 20
0.0
 30
0.0
  0
POINT
  5
6EA
  8
DEFPOINTS
 62
     0
 10
2613.2687945904990556
 20
930.2915025208232009
 30
0.0
  0
POINT
  5
6EB
  8
DEFPOINTS
 62
     0
 10
2613.2687945904990556
 20
870.2915025208232009
 30
0.0
  0
POINT
  5
6EC
  8
DEFPOINTS
 62
     0
 10
2653.0433512345362033
 20
870.2915025208232009
 30
0.0
  0
ENDBLK
  5
4FA
  8
0
  0
BLOCK
  8
0
  2
*D16
 70
     1
 10
0.0
 20
0.0
 30
0.0
  3
*D16
  1

  0
LINE
  5
544
  8
DIMENSIONS
 62
     0
 10
2541.0100978448881506
 20
971.0862634347254243
 30
0.0
 11
2517.0423972936077917
 21
971.0862634347254243
 31
0.0
  0
LINE
  5
545
  8
DIMENSIONS
 62
     0
 10
2539.5100978448881506
 20
966.0862634347253106
 30
0.0
 11
2517.0423972936077917
 21
966.0862634347253106
 31
0.0
  0
LINE
  5
546
  8
DIMENSIONS
 62
     0
 10
2518.2923972936077917
 20
973.5862634347254243
 30
0.0
 11
2518.2923972936077917
 21
976.086263434725538
 31
0.0
  0
LINE
  5
547
  8
DIMENSIONS
 62
     0
 10
2518.2923972936077917
 20
963.586263434725538
 30
0.0
 11
2518.2923972936077917
 21
950.9532484279041
 31
0.0
  0
LINE
  5
548
  8
DIMENSIONS
 62
     0
 10
2518.2923972936077917
 20
971.0862634347254243
 30
0.0
 11
2518.2923972936077917
 21
966.0862634347253106
 31
0.0
  0
SOLID
  5
549
  8
DIMENSIONS
 62
     0
 10
2517.8757306269421861
 20
973.5862634347254243
 30
0.0
 11
2518.7090639602752162
 21
973.5862634347254243
 31
0.0
 12
2518.2923972936077917
 22
971.0862634347254243
 32
0.0
 13
2518.2923972936077917
 23
971.0862634347254243
 33
0.0
  0
SOLID
  5
54A
  8
DIMENSIONS
 62
     0
 10
2517.8757306269421861
 20
963.586263434725538
 30
0.0
 11
2518.7090639602752162
 21
963.586263434725538
 31
0.0
 12
2518.2923972936077917
 22
966.0862634347253106
 32
0.0
 13
2518.2923972936077917
 23
966.0862634347253106
 33
0.0
  0
INSERT
  5
54B
  8
DIMENSIONS
  2
*U63
 10
0.0
 20
0.0
 30
0.0
  0
POINT
  5
54C
  8
DEFPOINTS
 62
     0
 10
2541.6350978448867863
 20
971.0862634347254243
 30
0.0
  0
POINT
  5
54D
  8
DEFPOINTS
 62
     0
 10
2540.1350978448881506
 20
966.0862634347253106
 30
0.0
  0
POINT
  5
54E
  8
DEFPOINTS
 62
     0
 10
2518.2923972936077917
 20
966.0862634347253106
 30
0.0
  0
ENDBLK
  5
512
  8
0
  0
BLOCK
  8
0
  2
*D17
 70
     1
 10
0.0
 20
0.0
 30
0.0
  3
*D17
  1

  0
LINE
  5
6ED
  8
DIMENSIONS
 62
     0
 10
2608.7687945904981461
 20
931.9165025208227462
 30
0.0
 11
2608.7687945904981461
 21
952.8727665996862015
 31
0.0
  0
LINE
  5
6EE
  8
DIMENSIONS
 62
     0
 10
2613.7687945904981461
 20
930.4165025208227462
 30
0.0
 11
2613.7687945904981461
 21
952.8727665996862015
 31
0.0
  0
LINE
  5
6EF
  8
DIMENSIONS
 62
     0
 10
2606.2687945904981461
 20
951.6227665996863152
 30
0.0
 11
2603.7687945904981461
 21
951.6227665996863152
 31
0.0
  0
LINE
  5
6F0
  8
DIMENSIONS
 62
     0
 10
2616.2687945904981461
 20
951.6227665996863152
 30
0.0
 11
2628.9018095973187883
 21
951.6227665996863152
 31
0.0
  0
LINE
  5
6F1
  8
DIMENSIONS
 62
     0
 10
2608.7687945904981461
 20
951.6227665996863152
 30
0.0
 11
2613.7687945904981461
 21
951.6227665996863152
 31
0.0
  0
SOLID
  5
6F2
  8
DIMENSIONS
 62
     0
 10
2606.2687945904981461
 20
952.039433266352944
 30
0.0
 11
2606.2687945904981461
 21
951.2060999330196864
 31
0.0
 12
2608.7687945904981461
 22
951.6227665996863152
 32
0.0
 13
2608.7687945904981461
 23
951.6227665996863152
 33
0.0
  0
SOLID
  5
6F3
  8
DIMENSIONS
 62
     0
 10
2616.2687945904981461
 20
952.039433266352944
 30
0.0
 11
2616.2687945904981461
 21
951.2060999330196864
 31
0.0
 12
2613.7687945904981461
 22
951.6227665996863152
 32
0.0
 13
2613.7687945904981461
 23
951.6227665996863152
 33
0.0
  0
INSERT
  5
6F4
  8
DIMENSIONS
  2
*U73
 10
0.0
 20
0.0
 30
0.0
  0
POINT
  5
6F5
  8
DEFPOINTS
 62
     0
 10
2608.7687945904981461
 20
931.2915025208226325
 30
0.0
  0
POINT
  5
6F6
  8
DEFPOINTS
 62
     0
 10
2613.7687945904981461
 20
929.7915025208227462
 30
0.0
  0
POINT
  5
6F7
  8
DEFPOINTS
 62
     0
 10
2613.7687945904981461
 20
951.6227665996863152
 30
0.0
  0
ENDBLK
  5
552
  8
0
  0
BLOCK
  8
0
  2
*D18
 70
     1
 10
0.0
 20
0.0
 30
0.0
  3
*D18
  1

  0
LINE
  5
678
  8
DIMENSIONS
 62
     0
 10
2599.2849421588839505
 20
885.2666174173361924
 30
0.0
 11
2599.2849421588839505
 21
864.3103533384761477
 31
0.0
  0
LINE
  5
679
  8
DIMENSIONS
 62
     0
 10
2604.2849421588839505
 20
886.7666174173360787
 30
0.0
 11
2604.2849421588839505
 21
864.3103533384761477
 31
0.0
  0
LINE
  5
67A
  8
DIMENSIONS
 62
     0
 10
2596.7849421588839505
 20
865.5603533384762613
 30
0.0
 11
2594.2849421588839505
 21
865.5603533384762613
 31
0.0
  0
LINE
  5
67B
  8
DIMENSIONS
 62
     0
 10
2606.7849421588839505
 20
865.5603533384762613
 30
0.0
 11
2619.4179571657050474
 21
865.5603533384762613
 31
0.0
  0
LINE
  5
67C
  8
DIMENSIONS
 62
     0
 10
2599.2849421588839505
 20
865.5603533384762613
 30
0.0
 11
2604.2849421588839505
 21
865.5603533384762613
 31
0.0
  0
SOLID
  5
67D
  8
DIMENSIONS
 62
     0
 10
2596.7849421588839505
 20
865.9770200051428901
 30
0.0
 11
2596.7849421588839505
 21
865.1436866718096326
 31
0.0
 12
2599.2849421588839505
 22
865.5603533384762613
 32
0.0
 13
2599.2849421588839505
 23
865.5603533384762613
 33
0.0
  0
SOLID
  5
67E
  8
DIMENSIONS
 62
     0
 10
2606.7849421588839505
 20
865.9770200051428901
 30
0.0
 11
2606.7849421588839505
 21
865.1436866718096326
 31
0.0
 12
2604.2849421588839505
 22
865.5603533384762613
 32
0.0
 13
2604.2849421588839505
 23
865.5603533384762613
 33
0.0
  0
INSERT
  5
67F
  8
DIMENSIONS
  2
*U64
 10
0.0
 20
0.0
 30
0.0
  0
POINT
  5
680
  8
DEFPOINTS
 62
     0
 10
2599.2849421588839505
 20
885.8916174173361924
 30
0.0
  0
POINT
  5
681
  8
DEFPOINTS
 62
     0
 10
2604.2849421588839505
 20
887.3916174173360787
 30
0.0
  0
POINT
  5
682
  8
DEFPOINTS
 62
     0
 10
2604.2849421588839505
 20
865.5603533384762613
 30
0.0
  0
ENDBLK
  5
585
  8
0
  0
BLOCK
  8
0
  2
*D19
 70
     1
 10
0.0
 20
0.0
 30
0.0
  3
*D19
  1

  0
LINE
  5
683
  8
DIMENSIONS
 62
     0
 10
2596.2849421588839505
 20
885.2666174173361924
 30
0.0
 11
2596.2849421588839505
 21
870.5676892278095238
 31
0.0
  0
LINE
  5
684
  8
DIMENSIONS
 62
     0
 10
2584.2849421588839505
 20
885.2666174173361924
 30
0.0
 11
2584.2849421588839505
 21
870.5676892278095238
 31
0.0
  0
LINE
  5
685
  8
DIMENSIONS
 62
     0
 10
2593.7849421588839505
 20
871.8176892278094101
 30
0.0
 11
2586.7849421588839505
 21
871.8176892278094101
 31
0.0
  0
SOLID
  5
686
  8
DIMENSIONS
 62
     0
 10
2593.7849421588839505
 20
872.2343558944761526
 30
0.0
 11
2593.7849421588839505
 21
871.4010225611430087
 31
0.0
 12
2596.2849421588839505
 22
871.8176892278094101
 32
0.0
 13
2596.2849421588839505
 23
871.8176892278094101
 33
0.0
  0
SOLID
  5
687
  8
DIMENSIONS
 62
     0
 10
2586.7849421588839505
 20
872.2343558944761526
 30
0.0
 11
2586.7849421588839505
 21
871.4010225611430087
 31
0.0
 12
2584.2849421588839505
 22
871.8176892278094101
 32
0.0
 13
2584.2849421588839505
 23
871.8176892278094101
 33
0.0
  0
INSERT
  5
688
  8
DIMENSIONS
  2
*U65
 10
0.0
 20
0.0
 30
0.0
  0
POINT
  5
689
  8
DEFPOINTS
 62
     0
 10
2596.2849421588839505
 20
885.8916174173361924
 30
0.0
  0
POINT
  5
68A
  8
DEFPOINTS
 62
     0
 10
2584.2849421588839505
 20
885.8916174173361924
 30
0.0
  0
POINT
  5
68B
  8
DEFPOINTS
 62
     0
 10
2584.2849421588839505
 20
871.8176892278094101
 30
0.0
  0
ENDBLK
  5
5B7
  8
0
  0
BLOCK
  8
0
  2
*D20
 70
     1
 10
0.0
 20
0.0
 30
0.0
  3
*D20
  1

  0
LINE
  5
68C
  8
DIMENSIONS
 62
     0
 10
2556.2849421588839505
 20
885.2666174173361924
 30
0.0
 11
2556.2849421588839505
 21
870.5676892278122523
 31
0.0
  0
LINE
  5
68D
  8
DIMENSIONS
 62
     0
 10
2568.2849421588839505
 20
885.2666174173361924
 30
0.0
 11
2568.2849421588839505
 21
870.5676892278122523
 31
0.0
  0
LINE
  5
68E
  8
DIMENSIONS
 62
     0
 10
2558.7849421588839505
 20
871.8176892278122523
 30
0.0
 11
2565.7849421588839505
 21
871.8176892278122523
 31
0.0
  0
SOLID
  5
68F
  8
DIMENSIONS
 62
     0
 10
2558.7849421588839505
 20
872.2343558944788811
 30
0.0
 11
2558.7849421588839505
 21
871.4010225611456235
 31
0.0
 12
2556.2849421588839505
 22
871.8176892278122523
 32
0.0
 13
2556.2849421588839505
 23
871.8176892278122523
 33
0.0
  0
SOLID
  5
690
  8
DIMENSIONS
 62
     0
 10
2565.7849421588839505
 20
872.2343558944788811
 30
0.0
 11
2565.7849421588839505
 21
871.4010225611456235
 31
0.0
 12
2568.2849421588839505
 22
871.8176892278122523
 32
0.0
 13
2568.2849421588839505
 23
871.8176892278122523
 33
0.0
  0
INSERT
  5
691
  8
DIMENSIONS
  2
*U66
 10
0.0
 20
0.0
 30
0.0
  0
POINT
  5
692
  8
DEFPOINTS
 62
     0
 10
2556.2849421588839505
 20
885.8916174173361924
 30
0.0
  0
POINT
  5
693
  8
DEFPOINTS
 62
     0
 10
2568.2849421588839505
 20
885.8916174173361924
 30
0.0
  0
POINT
  5
694
  8
DEFPOINTS
 62
     0
 10
2568.2849421588839505
 20
871.8176892278122523
 30
0.0
  0
ENDBLK
  5
5CF
  8
0
  0
BLOCK
  8
0
  2
*D21
 70
     1
 10
0.0
 20
0.0
 30
0.0
  3
*D21
  1

  0
LINE
  5
695
  8
DIMENSIONS
 62
     0
 10
2584.2849421588839505
 20
885.2666174173361924
 30
0.0
 11
2584.2849421588839505
 21
870.5676892278122523
 31
0.0
  0
LINE
  5
696
  8
DIMENSIONS
 62
     0
 10
2568.2849421588839505
 20
885.2666174173361924
 30
0.0
 11
2568.2849421588839505
 21
870.5676892278122523
 31
0.0
  0
LINE
  5
697
  8
DIMENSIONS
 62
     0
 10
2581.7849421588839505
 20
871.8176892278122523
 30
0.0
 11
2570.7849421588839505
 21
871.8176892278122523
 31
0.0
  0
SOLID
  5
698
  8
DIMENSIONS
 62
     0
 10
2581.7849421588839505
 20
872.2343558944788811
 30
0.0
 11
2581.7849421588839505
 21
871.4010225611456235
 31
0.0
 12
2584.2849421588839505
 22
871.8176892278122523
 32
0.0
 13
2584.2849421588839505
 23
871.8176892278122523
 33
0.0
  0
SOLID
  5
699
  8
DIMENSIONS
 62
     0
 10
2570.7849421588839505
 20
872.2343558944788811
 30
0.0
 11
2570.7849421588839505
 21
871.4010225611456235
 31
0.0
 12
2568.2849421588839505
 22
871.8176892278122523
 32
0.0
 13
2568.2849421588839505
 23
871.8176892278122523
 33
0.0
  0
INSERT
  5
69A
  8
DIMENSIONS
  2
*U67
 10
0.0
 20
0.0
 30
0.0
  0
POINT
  5
69B
  8
DEFPOINTS
 62
     0
 10
2584.2849421588839505
 20
885.8916174173361924
 30
0.0
  0
POINT
  5
69C
  8
DEFPOINTS
 62
     0
 10
2568.2849421588839505
 20
885.8916174173361924
 30
0.0
  0
POINT
  5
69D
  8
DEFPOINTS
 62
     0
 10
2568.2849421588839505
 20
871.8176892278122523
 30
0.0
  0
ENDBLK
  5
5E7
  8
0
  0
BLOCK
  8
0
  2
*D22
 70
     1
 10
0.0
 20
0.0
 30
0.0
  3
*D22
  1

  0
LINE
  5
6F8
  8
DIMENSIONS
 62
     0
 10
2613.7687945904981461
 20
930.4165025208227462
 30
0.0
 11
2613.7687945904981461
 21
965.8781905916971482
 31
0.0
  0
LINE
  5
6F9
  8
DIMENSIONS
 62
     0
 10
2523.7687945904981461
 20
930.4165025208227462
 30
0.0
 11
2523.7687945904981461
 21
965.8781905916971482
 31
0.0
  0
LINE
  5
6FA
  8
DIMENSIONS
 62
     0
 10
2611.2687945904981461
 20
964.6281905916972619
 30
0.0
 11
2526.2687945904981461
 21
964.6281905916972619
 31
0.0
  0
SOLID
  5
6FB
  8
DIMENSIONS
 62
     0
 10
2611.2687945904981461
 20
965.0448572583638907
 30
0.0
 11
2611.2687945904981461
 21
964.2115239250307468
 31
0.0
 12
2613.7687945904981461
 22
964.6281905916972619
 32
0.0
 13
2613.7687945904981461
 23
964.6281905916972619
 33
0.0
  0
SOLID
  5
6FC
  8
DIMENSIONS
 62
     0
 10
2526.2687945904981461
 20
965.0448572583638907
 30
0.0
 11
2526.2687945904981461
 21
964.2115239250307468
 31
0.0
 12
2523.7687945904981461
 22
964.6281905916972619
 32
0.0
 13
2523.7687945904981461
 23
964.6281905916972619
 33
0.0
  0
INSERT
  5
6FD
  8
DIMENSIONS
  2
*U74
 10
0.0
 20
0.0
 30
0.0
  0
POINT
  5
6FE
  8
DEFPOINTS
 62
     0
 10
2613.7687945904981461
 20
929.7915025208227462
 30
0.0
  0
POINT
  5
6FF
  8
DEFPOINTS
 62
     0
 10
2523.7687945904981461
 20
929.7915025208227462
 30
0.0
  0
POINT
  5
700
  8
DEFPOINTS
 62
     0
 10
2523.7687945904981461
 20
964.6281905916972619
 30
0.0
  0
ENDBLK
  5
5F4
  8
0
  0
BLOCK
  8
0
  2
*D23
 70
     1
 10
0.0
 20
0.0
 30
0.0
  3
*D23
  1

  0
LINE
  5
701
  8
DIMENSIONS
 62
     0
 10
2571.7687945904981461
 20
931.9165025208227462
 30
0.0
 11
2571.7687945904981461
 21
952.8727665996862015
 31
0.0
  0
LINE
  5
702
  8
DIMENSIONS
 62
     0
 10
2559.7687945904981461
 20
931.9165025208227462
 30
0.0
 11
2559.7687945904981461
 21
952.8727665996862015
 31
0.0
  0
LINE
  5
703
  8
DIMENSIONS
 62
     0
 10
2569.2687945904981461
 20
951.6227665996863152
 30
0.0
 11
2562.2687945904981461
 21
951.6227665996863152
 31
0.0
  0
SOLID
  5
704
  8
DIMENSIONS
 62
     0
 10
2569.2687945904981461
 20
952.039433266352944
 30
0.0
 11
2569.2687945904981461
 21
951.2060999330196864
 31
0.0
 12
2571.7687945904981461
 22
951.6227665996863152
 32
0.0
 13
2571.7687945904981461
 23
951.6227665996863152
 33
0.0
  0
SOLID
  5
705
  8
DIMENSIONS
 62
     0
 10
2562.2687945904981461
 20
952.039433266352944
 30
0.0
 11
2562.2687945904981461
 21
951.2060999330196864
 31
0.0
 12
2559.7687945904981461
 22
951.6227665996863152
 32
0.0
 13
2559.7687945904981461
 23
951.6227665996863152
 33
0.0
  0
INSERT
  5
706
  8
DIMENSIONS
  2
*U75
 10
0.0
 20
0.0
 30
0.0
  0
POINT
  5
707
  8
DEFPOINTS
 62
     0
 10
2571.7687945904981461
 20
931.2915025208226325
 30
0.0
  0
POINT
  5
708
  8
DEFPOINTS
 62
     0
 10
2559.7687945904981461
 20
931.2915025208226325
 30
0.0
  0
POINT
  5
709
  8
DEFPOINTS
 62
     0
 10
2559.7687945904981461
 20
951.6227665996863152
 30
0.0
  0
ENDBLK
  5
6AB
  8
0
  0
BLOCK
  8
0
  2
*D24
 70
     1
 10
0.0
 20
0.0
 30
0.0
  3
*D24
  1

  0
LINE
  5
7F3
  8
DIMENSIONS
 62
     0
 10
2808.6326357332868611
 20
941.9590535886593443
 30
0.0
 11
2773.1709476624128001
 21
941.9590535886593443
 31
0.0
  0
LINE
  5
7F4
  8
DIMENSIONS
 62
     0
 10
2808.6326357332868611
 20
851.9590535886592306
 30
0.0
 11
2773.1709476624128001
 21
851.9590535886592306
 31
0.0
  0
LINE
  5
7F5
  8
DIMENSIONS
 62
     0
 10
2774.4209476624128001
 20
939.4590535886592306
 30
0.0
 11
2774.4209476624128001
 21
854.4590535886593443
 31
0.0
  0
SOLID
  5
7F6
  8
DIMENSIONS
 62
     0
 10
2774.0042809957458303
 20
939.4590535886592306
 30
0.0
 11
2774.8376143290788605
 21
939.4590535886592306
 31
0.0
 12
2774.4209476624128001
 22
941.9590535886593443
 32
0.0
 13
2774.4209476624128001
 23
941.9590535886593443
 33
0.0
  0
SOLID
  5
7F7
  8
DIMENSIONS
 62
     0
 10
2774.0042809957458303
 20
854.4590535886593443
 30
0.0
 11
2774.8376143290788605
 21
854.4590535886593443
 31
0.0
 12
2774.4209476624128001
 22
851.9590535886592306
 32
0.0
 13
2774.4209476624128001
 23
851.9590535886592306
 33
0.0
  0
INSERT
  5
7F8
  8
DIMENSIONS
  2
*U82
 10
0.0
 20
0.0
 30
0.0
  0
POINT
  5
7F9
  8
DEFPOINTS
 62
     0
 10
2809.2576357332868611
 20
941.9590535886593443
 30
0.0
  0
POINT
  5
7FA
  8
DEFPOINTS
 62
     0
 10
2809.2576357332868611
 20
851.9590535886592306
 30
0.0
  0
POINT
  5
7FB
  8
DEFPOINTS
 62
     0
 10
2774.4209476624128001
 20
851.9590535886592306
 30
0.0
  0
ENDBLK
  5
752
  8
0
  0
BLOCK
  8
0
  2
*D25
 70
     1
 10
0.0
 20
0.0
 30
0.0
  3
*D25
  1

  0
LINE
  5
7BB
  8
DIMENSIONS
 62
     0
 10
2815.7576357332859516
 20
944.1840535886586849
 30
0.0
 11
2815.7576357332859516
 21
967.5175545793374567
 31
0.0
  0
LINE
  5
7BC
  8
DIMENSIONS
 62
     0
 10
2826.7576357332859516
 20
944.1840535886586849
 30
0.0
 11
2826.7576357332859516
 21
967.5175545793374567
 31
0.0
  0
LINE
  5
7BD
  8
DIMENSIONS
 62
     0
 10
2818.2576357332859516
 20
966.2675545793374567
 30
0.0
 11
2824.2576357332859516
 21
966.2675545793374567
 31
0.0
  0
SOLID
  5
7BE
  8
DIMENSIONS
 62
     0
 10
2818.2576357332859516
 20
966.6842212460040855
 30
0.0
 11
2818.2576357332859516
 21
965.850887912670828
 31
0.0
 12
2815.7576357332859516
 22
966.2675545793374567
 32
0.0
 13
2815.7576357332859516
 23
966.2675545793374567
 33
0.0
  0
SOLID
  5
7BF
  8
DIMENSIONS
 62
     0
 10
2824.2576357332859516
 20
966.6842212460040855
 30
0.0
 11
2824.2576357332859516
 21
965.850887912670828
 31
0.0
 12
2826.7576357332859516
 22
966.2675545793374567
 32
0.0
 13
2826.7576357332859516
 23
966.2675545793374567
 33
0.0
  0
INSERT
  5
7C0
  8
DIMENSIONS
  2
*U76
 10
0.0
 20
0.0
 30
0.0
  0
POINT
  5
7C1
  8
DEFPOINTS
 62
     0
 10
2815.7576357332859516
 20
943.5590535886586849
 30
0.0
  0
POINT
  5
7C2
  8
DEFPOINTS
 62
     0
 10
2826.7576357332859516
 20
943.5590535886586849
 30
0.0
  0
POINT
  5
7C3
  8
DEFPOINTS
 62
     0
 10
2826.7576357332859516
 20
966.2675545793374567
 30
0.0
  0
ENDBLK
  5
75E
  8
0
  0
BLOCK
  8
0
  2
*D26
 70
     1
 10
0.0
 20
0.0
 30
0.0
  3
*D26
  1

  0
LINE
  5
7C4
  8
DIMENSIONS
 62
     0
 10
2826.7576357332859516
 20
944.1840535886586849
 30
0.0
 11
2826.7576357332859516
 21
967.5175545793374567
 31
0.0
  0
LINE
  5
7C5
  8
DIMENSIONS
 62
     0
 10
2838.7576357332859516
 20
944.1840535886586849
 30
0.0
 11
2838.7576357332859516
 21
967.5175545793374567
 31
0.0
  0
LINE
  5
7C6
  8
DIMENSIONS
 62
     0
 10
2829.2576357332859516
 20
966.2675545793374567
 30
0.0
 11
2836.2576357332859516
 21
966.2675545793374567
 31
0.0
  0
SOLID
  5
7C7
  8
DIMENSIONS
 62
     0
 10
2829.2576357332859516
 20
966.6842212460040855
 30
0.0
 11
2829.2576357332859516
 21
965.850887912670828
 31
0.0
 12
2826.7576357332859516
 22
966.2675545793374567
 32
0.0
 13
2826.7576357332859516
 23
966.2675545793374567
 33
0.0
  0
SOLID
  5
7C8
  8
DIMENSIONS
 62
     0
 10
2836.2576357332859516
 20
966.6842212460040855
 30
0.0
 11
2836.2576357332859516
 21
965.850887912670828
 31
0.0
 12
2838.7576357332859516
 22
966.2675545793374567
 32
0.0
 13
2838.7576357332859516
 23
966.2675545793374567
 33
0.0
  0
INSERT
  5
7C9
  8
DIMENSIONS
  2
*U77
 10
0.0
 20
0.0
 30
0.0
  0
POINT
  5
7CA
  8
DEFPOINTS
 62
     0
 10
2826.7576357332859516
 20
943.5590535886586849
 30
0.0
  0
POINT
  5
7CB
  8
DEFPOINTS
 62
     0
 10
2838.7576357332859516
 20
943.5590535886586849
 30
0.0
  0
POINT
  5
7CC
  8
DEFPOINTS
 62
     0
 10
2838.7576357332859516
 20
966.2675545793374567
 30
0.0
  0
ENDBLK
  5
76A
  8
0
  0
BLOCK
  8
0
  2
*D27
 70
     1
 10
0.0
 20
0.0
 30
0.0
  3
*D27
  1

  0
LINE
  5
7CD
  8
DIMENSIONS
 62
     0
 10
2838.7576357332859516
 20
944.1840535886586849
 30
0.0
 11
2838.7576357332859516
 21
967.5175545793374567
 31
0.0
  0
LINE
  5
7CE
  8
DIMENSIONS
 62
     0
 10
2850.7576357332859516
 20
944.1840535886586849
 30
0.0
 11
2850.7576357332859516
 21
967.5175545793374567
 31
0.0
  0
LINE
  5
7CF
  8
DIMENSIONS
 62
     0
 10
2841.2576357332859516
 20
966.2675545793374567
 30
0.0
 11
2848.2576357332859516
 21
966.2675545793374567
 31
0.0
  0
SOLID
  5
7D0
  8
DIMENSIONS
 62
     0
 10
2841.2576357332859516
 20
966.6842212460040855
 30
0.0
 11
2841.2576357332859516
 21
965.850887912670828
 31
0.0
 12
2838.7576357332859516
 22
966.2675545793374567
 32
0.0
 13
2838.7576357332859516
 23
966.2675545793374567
 33
0.0
  0
SOLID
  5
7D1
  8
DIMENSIONS
 62
     0
 10
2848.2576357332859516
 20
966.6842212460040855
 30
0.0
 11
2848.2576357332859516
 21
965.850887912670828
 31
0.0
 12
2850.7576357332859516
 22
966.2675545793374567
 32
0.0
 13
2850.7576357332859516
 23
966.2675545793374567
 33
0.0
  0
INSERT
  5
7D2
  8
DIMENSIONS
  2
*U78
 10
0.0
 20
0.0
 30
0.0
  0
POINT
  5
7D3
  8
DEFPOINTS
 62
     0
 10
2838.7576357332859516
 20
943.5590535886586849
 30
0.0
  0
POINT
  5
7D4
  8
DEFPOINTS
 62
     0
 10
2850.7576357332859516
 20
943.5590535886586849
 30
0.0
  0
POINT
  5
7D5
  8
DEFPOINTS
 62
     0
 10
2850.7576357332859516
 20
966.2675545793374567
 30
0.0
  0
ENDBLK
  5
776
  8
0
  0
BLOCK
  8
0
  2
*D28
 70
     1
 10
0.0
 20
0.0
 30
0.0
  3
*D28
  1

  0
LINE
  5
7D6
  8
DIMENSIONS
 62
     0
 10
2850.7576357332859516
 20
944.1840535886586849
 30
0.0
 11
2850.7576357332859516
 21
967.5175545793374567
 31
0.0
  0
LINE
  5
7D7
  8
DIMENSIONS
 62
     0
 10
2861.7576357332859516
 20
944.1840535886586849
 30
0.0
 11
2861.7576357332859516
 21
967.5175545793374567
 31
0.0
  0
LINE
  5
7D8
  8
DIMENSIONS
 62
     0
 10
2853.2576357332859516
 20
966.2675545793374567
 30
0.0
 11
2859.2576357332859516
 21
966.2675545793374567
 31
0.0
  0
SOLID
  5
7D9
  8
DIMENSIONS
 62
     0
 10
2853.2576357332859516
 20
966.6842212460040855
 30
0.0
 11
2853.2576357332859516
 21
965.850887912670828
 31
0.0
 12
2850.7576357332859516
 22
966.2675545793374567
 32
0.0
 13
2850.7576357332859516
 23
966.2675545793374567
 33
0.0
  0
SOLID
  5
7DA
  8
DIMENSIONS
 62
     0
 10
2859.2576357332859516
 20
966.6842212460040855
 30
0.0
 11
2859.2576357332859516
 21
965.850887912670828
 31
0.0
 12
2861.7576357332859516
 22
966.2675545793374567
 32
0.0
 13
2861.7576357332859516
 23
966.2675545793374567
 33
0.0
  0
INSERT
  5
7DB
  8
DIMENSIONS
  2
*U79
 10
0.0
 20
0.0
 30
0.0
  0
POINT
  5
7DC
  8
DEFPOINTS
 62
     0
 10
2850.7576357332859516
 20
943.5590535886586849
 30
0.0
  0
POINT
  5
7DD
  8
DEFPOINTS
 62
     0
 10
2861.7576357332859516
 20
943.5590535886586849
 30
0.0
  0
POINT
  5
7DE
  8
DEFPOINTS
 62
     0
 10
2861.7576357332859516
 20
966.2675545793374567
 30
0.0
  0
ENDBLK
  5
782
  8
0
  0
BLOCK
  8
0
  2
*D29
 70
     1
 10
0.0
 20
0.0
 30
0.0
  3
*D29
  1

  0
LINE
  5
7DF
  8
DIMENSIONS
 62
     0
 10
2808.7576357332859516
 20
942.0840535886587759
 30
0.0
 11
2808.7576357332859516
 21
982.4836102326978562
 31
0.0
  0
LINE
  5
7E0
  8
DIMENSIONS
 62
     0
 10
2868.7576357332859516
 20
942.0840535886587759
 30
0.0
 11
2868.7576357332859516
 21
982.4836102326978562
 31
0.0
  0
LINE
  5
7E1
  8
DIMENSIONS
 62
     0
 10
2811.2576357332859516
 20
981.2336102326978562
 30
0.0
 11
2866.2576357332859516
 21
981.2336102326978562
 31
0.0
  0
SOLID
  5
7E2
  8
DIMENSIONS
 62
     0
 10
2811.2576357332859516
 20
981.650276899364485
 30
0.0
 11
2811.2576357332859516
 21
980.8169435660312274
 31
0.0
 12
2808.7576357332859516
 22
981.2336102326978562
 32
0.0
 13
2808.7576357332859516
 23
981.2336102326978562
 33
0.0
  0
SOLID
  5
7E3
  8
DIMENSIONS
 62
     0
 10
2866.2576357332859516
 20
981.650276899364485
 30
0.0
 11
2866.2576357332859516
 21
980.8169435660312274
 31
0.0
 12
2868.7576357332859516
 22
981.2336102326978562
 32
0.0
 13
2868.7576357332859516
 23
981.2336102326978562
 33
0.0
  0
INSERT
  5
7E4
  8
DIMENSIONS
  2
*U80
 10
0.0
 20
0.0
 30
0.0
  0
POINT
  5
7E5
  8
DEFPOINTS
 62
     0
 10
2808.7576357332859516
 20
941.4590535886587759
 30
0.0
  0
POINT
  5
7E6
  8
DEFPOINTS
 62
     0
 10
2868.7576357332859516
 20
941.4590535886587759
 30
0.0
  0
POINT
  5
7E7
  8
DEFPOINTS
 62
     0
 10
2868.7576357332859516
 20
981.2336102326978562
 30
0.0
  0
ENDBLK
  5
78E
  8
0
  0
BLOCK
  8
0
  2
*D30
 70
     1
 10
0.0
 20
0.0
 30
0.0
  3
*D30
  1

  0
LINE
  5
7E8
  8
DIMENSIONS
 62
     0
 10
2807.1326357332868611
 20
936.9590535886593443
 30
0.0
 11
2786.1763716544228373
 21
936.9590535886593443
 31
0.0
  0
LINE
  5
7E9
  8
DIMENSIONS
 62
     0
 10
2808.6326357332868611
 20
941.9590535886593443
 30
0.0
 11
2786.1763716544228373
 21
941.9590535886593443
 31
0.0
  0
LINE
  5
7EA
  8
DIMENSIONS
 62
     0
 10
2787.4263716544242016
 20
934.4590535886593443
 30
0.0
 11
2787.4263716544242016
 21
931.9590535886593443
 31
0.0
  0
LINE
  5
7EB
  8
DIMENSIONS
 62
     0
 10
2787.4263716544242016
 20
944.4590535886593443
 30
0.0
 11
2787.4263716544242016
 21
957.0920685954805549
 31
0.0
  0
LINE
  5
7EC
  8
DIMENSIONS
 62
     0
 10
2787.4263716544242016
 20
936.9590535886593443
 30
0.0
 11
2787.4263716544242016
 21
941.9590535886593443
 31
0.0
  0
SOLID
  5
7ED
  8
DIMENSIONS
 62
     0
 10
2787.009704987756777
 20
934.4590535886593443
 30
0.0
 11
2787.8430383210898071
 21
934.4590535886593443
 31
0.0
 12
2787.4263716544242016
 22
936.9590535886593443
 32
0.0
 13
2787.4263716544242016
 23
936.9590535886593443
 33
0.0
  0
SOLID
  5
7EE
  8
DIMENSIONS
 62
     0
 10
2787.009704987756777
 20
944.4590535886593443
 30
0.0
 11
2787.8430383210898071
 21
944.4590535886593443
 31
0.0
 12
2787.4263716544242016
 22
941.9590535886593443
 32
0.0
 13
2787.4263716544242016
 23
941.9590535886593443
 33
0.0
  0
INSERT
  5
7EF
  8
DIMENSIONS
  2
*U81
 10
0.0
 20
0.0
 30
0.0
  0
POINT
  5
7F0
  8
DEFPOINTS
 62
     0
 10
2807.7576357332868611
 20
936.9590535886593443
 30
0.0
  0
POINT
  5
7F1
  8
DEFPOINTS
 62
     0
 10
2809.2576357332868611
 20
941.9590535886593443
 30
0.0
  0
POINT
  5
7F2
  8
DEFPOINTS
 62
     0
 10
2787.4263716544242016
 20
941.9590535886593443
 30
0.0
  0
ENDBLK
  5
79A
  8
0
  0
BLOCK
  8
0
  2
*D31
 70
     1
 10
0.0
 20
0.0
 30
0.0
  3
*D31
  1

  0
LINE
  5
7FC
  8
DIMENSIONS
 62
     0
 10
2807.1326357332868611
 20
899.9590535886593443
 30
0.0
 11
2786.1763716544228373
 21
899.9590535886593443
 31
0.0
  0
LINE
  5
7FD
  8
DIMENSIONS
 62
     0
 10
2807.1326357332868611
 20
887.9590535886593443
 30
0.0
 11
2786.1763716544228373
 21
887.9590535886593443
 31
0.0
  0
LINE
  5
7FE
  8
DIMENSIONS
 62
     0
 10
2787.4263716544242016
 20
897.4590535886592306
 30
0.0
 11
2787.4263716544242016
 21
890.4590535886593443
 31
0.0
  0
SOLID
  5
7FF
  8
DIMENSIONS
 62
     0
 10
2787.009704987756777
 20
897.4590535886592306
 30
0.0
 11
2787.8430383210898071
 21
897.4590535886592306
 31
0.0
 12
2787.4263716544242016
 22
899.9590535886593443
 32
0.0
 13
2787.4263716544242016
 23
899.9590535886593443
 33
0.0
  0
SOLID
  5
800
  8
DIMENSIONS
 62
     0
 10
2787.009704987756777
 20
890.4590535886593443
 30
0.0
 11
2787.8430383210898071
 21
890.4590535886593443
 31
0.0
 12
2787.4263716544242016
 22
887.9590535886593443
 32
0.0
 13
2787.4263716544242016
 23
887.9590535886593443
 33
0.0
  0
INSERT
  5
801
  8
DIMENSIONS
  2
*U83
 10
0.0
 20
0.0
 30
0.0
  0
POINT
  5
802
  8
DEFPOINTS
 62
     0
 10
2807.7576357332868611
 20
899.9590535886593443
 30
0.0
  0
POINT
  5
803
  8
DEFPOINTS
 62
     0
 10
2807.7576357332868611
 20
887.9590535886593443
 30
0.0
  0
POINT
  5
804
  8
DEFPOINTS
 62
     0
 10
2787.4263716544242016
 20
887.9590535886593443
 30
0.0
  0
ENDBLK
  5
7B1
  8
0
  0
BLOCK
  8
0
  2
*D32
 70
     1
 10
0.0
 20
0.0
 30
0.0
  3
*D32
  1

  0
LINE
  5
813
  8
DIMENSIONS
 62
     0
 10
2807.1326357332868611
 20
887.9590535886593443
 30
0.0
 11
2786.1763716544260205
 21
887.9590535886593443
 31
0.0
  0
LINE
  5
814
  8
DIMENSIONS
 62
     0
 10
2807.1326357332868611
 20
871.9590535886593443
 30
0.0
 11
2786.1763716544260205
 21
871.9590535886593443
 31
0.0
  0
LINE
  5
815
  8
DIMENSIONS
 62
     0
 10
2787.426371654425111
 20
885.4590535886593443
 30
0.0
 11
2787.426371654425111
 21
874.4590535886593443
 31
0.0
  0
SOLID
  5
816
  8
DIMENSIONS
 62
     0
 10
2787.0097049877590507
 20
885.4590535886593443
 30
0.0
 11
2787.8430383210920809
 21
885.4590535886593443
 31
0.0
 12
2787.426371654425111
 22
887.9590535886593443
 32
0.0
 13
2787.426371654425111
 23
887.9590535886593443
 33
0.0
  0
SOLID
  5
817
  8
DIMENSIONS
 62
     0
 10
2787.0097049877590507
 20
874.4590535886593443
 30
0.0
 11
2787.8430383210920809
 21
874.4590535886593443
 31
0.0
 12
2787.426371654425111
 22
871.9590535886593443
 32
0.0
 13
2787.426371654425111
 23
871.9590535886593443
 33
0.0
  0
INSERT
  5
818
  8
DIMENSIONS
  2
*U84
 10
0.0
 20
0.0
 30
0.0
  0
POINT
  5
819
  8
DEFPOINTS
 62
     0
 10
2807.7576357332868611
 20
887.9590535886593443
 30
0.0
  0
POINT
  5
81A
  8
DEFPOINTS
 62
     0
 10
2807.7576357332868611
 20
871.9590535886593443
 30
0.0
  0
POINT
  5
81B
  8
DEFPOINTS
 62
     0
 10
2787.426371654425111
 20
871.9590535886593443
 30
0.0
  0
ENDBLK
  5
808
  8
0
  0
BLOCK
  8
0
  2
*D33
 70
     1
 10
0.0
 20
0.0
 30
0.0
  3
*D33
  1

  0
LINE
  5
82B
  8
DIMENSIONS
 62
     0
 10
2807.1326357332868611
 20
871.9590535886593443
 30
0.0
 11
2786.17637165442693
 21
871.9590535886593443
 31
0.0
  0
LINE
  5
82C
  8
DIMENSIONS
 62
     0
 10
2807.1326357332868611
 20
859.9590535886592306
 30
0.0
 11
2786.17637165442693
 21
859.9590535886592306
 31
0.0
  0
LINE
  5
82D
  8
DIMENSIONS
 62
     0
 10
2787.42637165442693
 20
869.4590535886593443
 30
0.0
 11
2787.42637165442693
 21
862.4590535886593443
 31
0.0
  0
SOLID
  5
82E
  8
DIMENSIONS
 62
     0
 10
2787.0097049877599602
 20
869.4590535886593443
 30
0.0
 11
2787.8430383210938999
 21
869.4590535886593443
 31
0.0
 12
2787.42637165442693
 22
871.9590535886593443
 32
0.0
 13
2787.42637165442693
 23
871.9590535886593443
 33
0.0
  0
SOLID
  5
82F
  8
DIMENSIONS
 62
     0
 10
2787.0097049877599602
 20
862.4590535886593443
 30
0.0
 11
2787.8430383210938999
 21
862.4590535886593443
 31
0.0
 12
2787.42637165442693
 22
859.9590535886592306
 32
0.0
 13
2787.42637165442693
 23
859.9590535886592306
 33
0.0
  0
INSERT
  5
830
  8
DIMENSIONS
  2
*U85
 10
0.0
 20
0.0
 30
0.0
  0
POINT
  5
831
  8
DEFPOINTS
 62
     0
 10
2807.7576357332868611
 20
871.9590535886593443
 30
0.0
  0
POINT
  5
832
  8
DEFPOINTS
 62
     0
 10
2807.7576357332868611
 20
859.9590535886592306
 30
0.0
  0
POINT
  5
833
  8
DEFPOINTS
 62
     0
 10
2787.42637165442693
 20
859.9590535886592306
 30
0.0
  0
ENDBLK
  5
820
  8
0
  0
BLOCK
  8
0
  2
*D34
 70
     1
 10
0.0
 20
0.0
 30
0.0
  3
*D34
  1

  0
LINE
  5
85C
  8
DIMENSIONS
 62
     0
 10
2810.3826357332868611
 20
856.9590535886593443
 30
0.0
 11
2825.1324201049160365
 21
856.959053588659458
 31
0.0
  0
LINE
  5
85D
  8
DIMENSIONS
 62
     0
 10
2809.8826357332868611
 20
851.9590535886592306
 30
0.0
 11
2825.1324201049160365
 21
851.9590535886593443
 31
0.0
  0
LINE
  5
85E
  8
DIMENSIONS
 62
     0
 10
2823.882420104915127
 20
859.4590535886593443
 30
0.0
 11
2823.882420104915127
 21
861.9590535886593443
 31
0.0
  0
LINE
  5
85F
  8
DIMENSIONS
 62
     0
 10
2823.882420104915127
 20
849.4590535886593443
 30
0.0
 11
2823.882420104915127
 21
836.8260385818381337
 31
0.0
  0
LINE
  5
860
  8
DIMENSIONS
 62
     0
 10
2823.882420104915127
 20
856.959053588659458
 30
0.0
 11
2823.882420104915127
 21
851.9590535886593443
 31
0.0
  0
SOLID
  5
861
  8
DIMENSIONS
 62
     0
 10
2823.4657534382490667
 20
859.4590535886593443
 30
0.0
 11
2824.2990867715820968
 21
859.4590535886593443
 31
0.0
 12
2823.882420104915127
 22
856.959053588659458
 32
0.0
 13
2823.882420104915127
 23
856.959053588659458
 33
0.0
  0
SOLID
  5
862
  8
DIMENSIONS
 62
     0
 10
2823.4657534382490667
 20
849.4590535886593443
 30
0.0
 11
2824.2990867715820968
 21
849.4590535886593443
 31
0.0
 12
2823.882420104915127
 22
851.9590535886593443
 32
0.0
 13
2823.882420104915127
 23
851.9590535886593443
 33
0.0
  0
INSERT
  5
863
  8
DIMENSIONS
  2
*U86
 10
0.0
 20
0.0
 30
0.0
  0
POINT
  5
864
  8
DEFPOINTS
 62
     0
 10
2809.7576357332868611
 20
856.9590535886593443
 30
0.0
  0
POINT
  5
865
  8
DEFPOINTS
 62
     0
 10
2809.2576357332868611
 20
851.9590535886592306
 30
0.0
  0
POINT
  5
866
  8
DEFPOINTS
 62
     0
 10
2823.882420104915127
 20
851.9590535886593443
 30
0.0
  0
ENDBLK
  5
838
  8
0
  0
BLOCK
  8
0
  2
*D37
 70
     1
 10
0.0
 20
0.0
 30
0.0
  3
*D37
  1

  0
LINE
  5
91C
  8
DIMENSIONS
 62
     0
 10
2978.4025675026709905
 20
941.9590535886593443
 30
0.0
 11
2942.9408794317978391
 21
941.9590535886593443
 31
0.0
  0
LINE
  5
91D
  8
DIMENSIONS
 62
     0
 10
2978.4025675026709905
 20
851.9590535886592306
 30
0.0
 11
2942.9408794317978391
 21
851.9590535886592306
 31
0.0
  0
LINE
  5
91E
  8
DIMENSIONS
 62
     0
 10
2944.1908794317978391
 20
939.4590535886592306
 30
0.0
 11
2944.1908794317978391
 21
854.4590535886593443
 31
0.0
  0
SOLID
  5
91F
  8
DIMENSIONS
 62
     0
 10
2943.7742127651317787
 20
939.4590535886592306
 30
0.0
 11
2944.6075460984648089
 21
939.4590535886592306
 31
0.0
 12
2944.1908794317978391
 22
941.9590535886593443
 32
0.0
 13
2944.1908794317978391
 23
941.9590535886593443
 33
0.0
  0
SOLID
  5
920
  8
DIMENSIONS
 62
     0
 10
2943.7742127651317787
 20
854.4590535886593443
 30
0.0
 11
2944.6075460984648089
 21
854.4590535886593443
 31
0.0
 12
2944.1908794317978391
 22
851.9590535886592306
 32
0.0
 13
2944.1908794317978391
 23
851.9590535886592306
 33
0.0
  0
INSERT
  5
921
  8
DIMENSIONS
  2
*U92
 10
0.0
 20
0.0
 30
0.0
  0
POINT
  5
922
  8
DEFPOINTS
 62
     0
 10
2979.0275675026709905
 20
941.9590535886593443
 30
0.0
  0
POINT
  5
923
  8
DEFPOINTS
 62
     0
 10
2979.0275675026709905
 20
851.9590535886592306
 30
0.0
  0
POINT
  5
924
  8
DEFPOINTS
 62
     0
 10
2944.1908794317978391
 20
851.9590535886592306
 30
0.0
  0
ENDBLK
  5
8C8
  8
0
  0
BLOCK
  8
0
  2
*D38
 70
     1
 10
0.0
 20
0.0
 30
0.0
  3
*D38
  1

  0
LINE
  5
8D5
  8
DIMENSIONS
 62
     0
 10
2985.527567502670081
 20
944.1840535886586849
 30
0.0
 11
2985.527567502670081
 21
967.5175545793374567
 31
0.0
  0
LINE
  5
8D6
  8
DIMENSIONS
 62
     0
 10
2996.5275675026709905
 20
944.1840535886586849
 30
0.0
 11
2996.5275675026709905
 21
967.5175545793374567
 31
0.0
  0
LINE
  5
8D7
  8
DIMENSIONS
 62
     0
 10
2988.027567502670081
 20
966.2675545793374567
 30
0.0
 11
2994.027567502670081
 21
966.2675545793374567
 31
0.0
  0
SOLID
  5
8D8
  8
DIMENSIONS
 62
     0
 10
2988.027567502670081
 20
966.6842212460040855
 30
0.0
 11
2988.027567502670081
 21
965.850887912670828
 31
0.0
 12
2985.527567502670081
 22
966.2675545793374567
 32
0.0
 13
2985.527567502670081
 23
966.2675545793374567
 33
0.0
  0
SOLID
  5
8D9
  8
DIMENSIONS
 62
     0
 10
2994.027567502670081
 20
966.6842212460040855
 30
0.0
 11
2994.027567502670081
 21
965.850887912670828
 31
0.0
 12
2996.5275675026709905
 22
966.2675545793374567
 32
0.0
 13
2996.5275675026709905
 23
966.2675545793374567
 33
0.0
  0
INSERT
  5
8DA
  8
DIMENSIONS
  2
*U87
 10
0.0
 20
0.0
 30
0.0
  0
POINT
  5
8DB
  8
DEFPOINTS
 62
     0
 10
2985.527567502670081
 20
943.5590535886586849
 30
0.0
  0
POINT
  5
8DC
  8
DEFPOINTS
 62
     0
 10
2996.5275675026709905
 20
943.5590535886586849
 30
0.0
  0
POINT
  5
8DD
  8
DEFPOINTS
 62
     0
 10
2996.5275675026709905
 20
966.2675545793374567
 30
0.0
  0
ENDBLK
  5
8D4
  8
0
  0
BLOCK
  8
0
  2
*D39
 70
     1
 10
0.0
 20
0.0
 30
0.0
  3
*D39
  1

  0
LINE
  5
8E1
  8
DIMENSIONS
 62
     0
 10
2996.5275675026709905
 20
944.1840535886586849
 30
0.0
 11
2996.5275675026709905
 21
967.5175545793374567
 31
0.0
  0
LINE
  5
8E2
  8
DIMENSIONS
 62
     0
 10
3008.527567502670081
 20
944.1840535886586849
 30
0.0
 11
3008.527567502670081
 21
967.5175545793374567
 31
0.0
  0
LINE
  5
8E3
  8
DIMENSIONS
 62
     0
 10
2999.027567502670081
 20
966.2675545793374567
 30
0.0
 11
3006.027567502670081
 21
966.2675545793374567
 31
0.0
  0
SOLID
  5
8E4
  8
DIMENSIONS
 62
     0
 10
2999.027567502670081
 20
966.6842212460040855
 30
0.0
 11
2999.027567502670081
 21
965.850887912670828
 31
0.0
 12
2996.5275675026709905
 22
966.2675545793374567
 32
0.0
 13
2996.5275675026709905
 23
966.2675545793374567
 33
0.0
  0
SOLID
  5
8E5
  8
DIMENSIONS
 62
     0
 10
3006.027567502670081
 20
966.6842212460040855
 30
0.0
 11
3006.027567502670081
 21
965.850887912670828
 31
0.0
 12
3008.527567502670081
 22
966.2675545793374567
 32
0.0
 13
3008.527567502670081
 23
966.2675545793374567
 33
0.0
  0
INSERT
  5
8E6
  8
DIMENSIONS
  2
*U88
 10
0.0
 20
0.0
 30
0.0
  0
POINT
  5
8E7
  8
DEFPOINTS
 62
     0
 10
2996.5275675026709905
 20
943.5590535886586849
 30
0.0
  0
POINT
  5
8E8
  8
DEFPOINTS
 62
     0
 10
3008.527567502670081
 20
943.5590535886586849
 30
0.0
  0
POINT
  5
8E9
  8
DEFPOINTS
 62
     0
 10
3008.527567502670081
 20
966.2675545793374567
 30
0.0
  0
ENDBLK
  5
8E0
  8
0
  0
BLOCK
  8
0
  2
*D40
 70
     1
 10
0.0
 20
0.0
 30
0.0
  3
*D40
  1

  0
LINE
  5
8ED
  8
DIMENSIONS
 62
     0
 10
3008.527567502670081
 20
944.1840535886586849
 30
0.0
 11
3008.527567502670081
 21
967.5175545793374567
 31
0.0
  0
LINE
  5
8EE
  8
DIMENSIONS
 62
     0
 10
3020.527567502670081
 20
944.1840535886586849
 30
0.0
 11
3020.527567502670081
 21
967.5175545793374567
 31
0.0
  0
LINE
  5
8EF
  8
DIMENSIONS
 62
     0
 10
3011.027567502670081
 20
966.2675545793374567
 30
0.0
 11
3018.0275675026709905
 21
966.2675545793374567
 31
0.0
  0
SOLID
  5
8F0
  8
DIMENSIONS
 62
     0
 10
3011.027567502670081
 20
966.6842212460040855
 30
0.0
 11
3011.027567502670081
 21
965.850887912670828
 31
0.0
 12
3008.527567502670081
 22
966.2675545793374567
 32
0.0
 13
3008.527567502670081
 23
966.2675545793374567
 33
0.0
  0
SOLID
  5
8F1
  8
DIMENSIONS
 62
     0
 10
3018.0275675026709905
 20
966.6842212460040855
 30
0.0
 11
3018.0275675026709905
 21
965.850887912670828
 31
0.0
 12
3020.527567502670081
 22
966.2675545793374567
 32
0.0
 13
3020.527567502670081
 23
966.2675545793374567
 33
0.0
  0
INSERT
  5
8F2
  8
DIMENSIONS
  2
*U89
 10
0.0
 20
0.0
 30
0.0
  0
POINT
  5
8F3
  8
DEFPOINTS
 62
     0
 10
3008.527567502670081
 20
943.5590535886586849
 30
0.0
  0
POINT
  5
8F4
  8
DEFPOINTS
 62
     0
 10
3020.527567502670081
 20
943.5590535886586849
 30
0.0
  0
POINT
  5
8F5
  8
DEFPOINTS
 62
     0
 10
3020.527567502670081
 20
966.2675545793374567
 30
0.0
  0
ENDBLK
  5
8EC
  8
0
  0
BLOCK
  8
0
  2
*D41
 70
     1
 10
0.0
 20
0.0
 30
0.0
  3
*D41
  1

  0
LINE
  5
8F9
  8
DIMENSIONS
 62
     0
 10
3020.527567502670081
 20
944.1840535886586849
 30
0.0
 11
3020.527567502670081
 21
967.5175545793374567
 31
0.0
  0
LINE
  5
8FA
  8
DIMENSIONS
 62
     0
 10
3031.527567502670081
 20
944.1840535886586849
 30
0.0
 11
3031.527567502670081
 21
967.5175545793374567
 31
0.0
  0
LINE
  5
8FB
  8
DIMENSIONS
 62
     0
 10
3023.027567502670081
 20
966.2675545793374567
 30
0.0
 11
3029.027567502670081
 21
966.2675545793374567
 31
0.0
  0
SOLID
  5
8FC
  8
DIMENSIONS
 62
     0
 10
3023.027567502670081
 20
966.6842212460040855
 30
0.0
 11
3023.027567502670081
 21
965.850887912670828
 31
0.0
 12
3020.527567502670081
 22
966.2675545793374567
 32
0.0
 13
3020.527567502670081
 23
966.2675545793374567
 33
0.0
  0
SOLID
  5
8FD
  8
DIMENSIONS
 62
     0
 10
3029.027567502670081
 20
966.6842212460040855
 30
0.0
 11
3029.027567502670081
 21
965.850887912670828
 31
0.0
 12
3031.527567502670081
 22
966.2675545793374567
 32
0.0
 13
3031.527567502670081
 23
966.2675545793374567
 33
0.0
  0
INSERT
  5
8FE
  8
DIMENSIONS
  2
*U90
 10
0.0
 20
0.0
 30
0.0
  0
POINT
  5
8FF
  8
DEFPOINTS
 62
     0
 10
3020.527567502670081
 20
943.5590535886586849
 30
0.0
  0
POINT
  5
900
  8
DEFPOINTS
 62
     0
 10
3031.527567502670081
 20
943.5590535886586849
 30
0.0
  0
POINT
  5
901
  8
DEFPOINTS
 62
     0
 10
3031.527567502670081
 20
966.2675545793374567
 30
0.0
  0
ENDBLK
  5
8F8
  8
0
  0
BLOCK
  8
0
  2
*D42
 70
     1
 10
0.0
 20
0.0
 30
0.0
  3
*D42
  1

  0
LINE
  5
905
  8
DIMENSIONS
 62
     0
 10
2978.527567502670081
 20
942.0840535886587759
 30
0.0
 11
2978.527567502670081
 21
982.4836102326978562
 31
0.0
  0
LINE
  5
906
  8
DIMENSIONS
 62
     0
 10
3038.527567502670081
 20
942.0840535886587759
 30
0.0
 11
3038.527567502670081
 21
982.4836102326978562
 31
0.0
  0
LINE
  5
907
  8
DIMENSIONS
 62
     0
 10
2981.027567502670081
 20
981.2336102326978562
 30
0.0
 11
3036.027567502670081
 21
981.2336102326978562
 31
0.0
  0
SOLID
  5
908
  8
DIMENSIONS
 62
     0
 10
2981.027567502670081
 20
981.650276899364485
 30
0.0
 11
2981.027567502670081
 21
980.8169435660312274
 31
0.0
 12
2978.527567502670081
 22
981.2336102326978562
 32
0.0
 13
2978.527567502670081
 23
981.2336102326978562
 33
0.0
  0
SOLID
  5
909
  8
DIMENSIONS
 62
     0
 10
3036.027567502670081
 20
981.650276899364485
 30
0.0
 11
3036.027567502670081
 21
980.8169435660312274
 31
0.0
 12
3038.527567502670081
 22
981.2336102326978562
 32
0.0
 13
3038.527567502670081
 23
981.2336102326978562
 33
0.0
  0
INSERT
  5
90A
  8
DIMENSIONS
  2
*U91
 10
0.0
 20
0.0
 30
0.0
  0
POINT
  5
90B
  8
DEFPOINTS
 62
     0
 10
2978.527567502670081
 20
941.4590535886587759
 30
0.0
  0
POINT
  5
90C
  8
DEFPOINTS
 62
     0
 10
3038.527567502670081
 20
941.4590535886587759
 30
0.0
  0
POINT
  5
90D
  8
DEFPOINTS
 62
     0
 10
3038.527567502670081
 20
981.2336102326978562
 30
0.0
  0
ENDBLK
  5
904
  8
0
  0
BLOCK
  8
0
  2
*D43
 70
     1
 10
0.0
 20
0.0
 30
0.0
  3
*D43
  1

  0
LINE
  5
959
  8
DIMENSIONS
 62
     0
 10
2982.9025675026709905
 20
940.9590535886593443
 30
0.0
 11
2957.44630342381015
 21
940.9590535886593443
 31
0.0
  0
LINE
  5
95A
  8
DIMENSIONS
 62
     0
 10
2978.4025675026709905
 20
941.9590535886593443
 30
0.0
 11
2957.44630342381015
 21
941.9590535886593443
 31
0.0
  0
LINE
  5
95B
  8
DIMENSIONS
 62
     0
 10
2958.6963034238087857
 20
938.4590535886593443
 30
0.0
 11
2958.6963034238087857
 21
935.9590535886593443
 31
0.0
  0
LINE
  5
95C
  8
DIMENSIONS
 62
     0
 10
2958.6963034238087857
 20
944.4590535886593443
 30
0.0
 11
2958.6963034238087857
 21
956.8567343526430022
 31
0.0
  0
LINE
  5
95D
  8
DIMENSIONS
 62
     0
 10
2958.6963034238087857
 20
940.9590535886593443
 30
0.0
 11
2958.6963034238087857
 21
941.9590535886593443
 31
0.0
  0
SOLID
  5
95E
  8
DIMENSIONS
 62
     0
 10
2958.2796367571431801
 20
938.4590535886593443
 30
0.0
 11
2959.1129700904762103
 21
938.4590535886593443
 31
0.0
 12
2958.6963034238087857
 22
940.9590535886593443
 32
0.0
 13
2958.6963034238087857
 23
940.9590535886593443
 33
0.0
  0
SOLID
  5
95F
  8
DIMENSIONS
 62
     0
 10
2958.2796367571431801
 20
944.4590535886593443
 30
0.0
 11
2959.1129700904762103
 21
944.4590535886593443
 31
0.0
 12
2958.6963034238087857
 22
941.9590535886593443
 32
0.0
 13
2958.6963034238087857
 23
941.9590535886593443
 33
0.0
  0
INSERT
  5
960
  8
DIMENSIONS
  2
*U94
 10
0.0
 20
0.0
 30
0.0
  0
POINT
  5
961
  8
DEFPOINTS
 62
     0
 10
2983.5275675026709905
 20
940.9590535886593443
 30
0.0
  0
POINT
  5
962
  8
DEFPOINTS
 62
     0
 10
2979.0275675026709905
 20
941.9590535886593443
 30
0.0
  0
POINT
  5
963
  8
DEFPOINTS
 62
     0
 10
2958.6963034238087857
 20
941.9590535886593443
 30
0.0
  0
ENDBLK
  5
910
  8
0
  0
BLOCK
  8
0
  2
*D44
 70
     1
 10
0.0
 20
0.0
 30
0.0
  3
*D44
  1

  0
LINE
  5
9A0
  8
DIMENSIONS
 62
     0
 10
2976.9025675026709905
 20
893.9590535886592306
 30
0.0
 11
2955.9463034238110595
 21
893.9590535886592306
 31
0.0
  0
LINE
  5
9A1
  8
DIMENSIONS
 62
     0
 10
2976.9025675026709905
 20
883.9590535886593443
 30
0.0
 11
2955.9463034238110595
 21
883.9590535886593443
 31
0.0
  0
LINE
  5
9A2
  8
DIMENSIONS
 62
     0
 10
2957.1963034238110595
 20
891.4590535886593443
 30
0.0
 11
2957.1963034238110595
 21
886.4590535886593443
 31
0.0
  0
SOLID
  5
9A3
  8
DIMENSIONS
 62
     0
 10
2956.7796367571449991
 20
891.4590535886593443
 30
0.0
 11
2957.6129700904780293
 21
891.4590535886593443
 31
0.0
 12
2957.1963034238110595
 22
893.9590535886592306
 32
0.0
 13
2957.1963034238110595
 23
893.9590535886592306
 33
0.0
  0
SOLID
  5
9A4
  8
DIMENSIONS
 62
     0
 10
2956.7796367571449991
 20
886.4590535886593443
 30
0.0
 11
2957.6129700904780293
 21
886.4590535886593443
 31
0.0
 12
2957.1963034238110595
 22
883.9590535886593443
 32
0.0
 13
2957.1963034238110595
 23
883.9590535886593443
 33
0.0
  0
INSERT
  5
9A5
  8
DIMENSIONS
  2
*U98
 10
0.0
 20
0.0
 30
0.0
  0
POINT
  5
9A6
  8
DEFPOINTS
 62
     0
 10
2977.5275675026709905
 20
893.9590535886592306
 30
0.0
  0
POINT
  5
9A7
  8
DEFPOINTS
 62
     0
 10
2977.5275675026709905
 20
883.9590535886593443
 30
0.0
  0
POINT
  5
9A8
  8
DEFPOINTS
 62
     0
 10
2957.1963034238110595
 20
883.9590535886593443
 30
0.0
  0
ENDBLK
  5
927
  8
0
  0
BLOCK
  8
0
  2
*D45
 70
     1
 10
0.0
 20
0.0
 30
0.0
  3
*D45
  1

  0
LINE
  5
98E
  8
DIMENSIONS
 62
     0
 10
2976.9025675026709905
 20
883.9590535886593443
 30
0.0
 11
2955.946303423811969
 21
883.9590535886593443
 31
0.0
  0
LINE
  5
98F
  8
DIMENSIONS
 62
     0
 10
2976.9025675026709905
 20
869.9590535886593443
 30
0.0
 11
2955.946303423811969
 21
869.9590535886593443
 31
0.0
  0
LINE
  5
990
  8
DIMENSIONS
 62
     0
 10
2957.196303423811969
 20
881.4590535886592306
 30
0.0
 11
2957.196303423811969
 21
872.4590535886592306
 31
0.0
  0
SOLID
  5
991
  8
DIMENSIONS
 62
     0
 10
2956.7796367571459086
 20
881.4590535886592306
 30
0.0
 11
2957.6129700904789388
 21
881.4590535886592306
 31
0.0
 12
2957.196303423811969
 22
883.9590535886593443
 32
0.0
 13
2957.196303423811969
 23
883.9590535886593443
 33
0.0
  0
SOLID
  5
992
  8
DIMENSIONS
 62
     0
 10
2956.7796367571459086
 20
872.4590535886592306
 30
0.0
 11
2957.6129700904789388
 21
872.4590535886592306
 31
0.0
 12
2957.196303423811969
 22
869.9590535886593443
 32
0.0
 13
2957.196303423811969
 23
869.9590535886593443
 33
0.0
  0
INSERT
  5
993
  8
DIMENSIONS
  2
*U96
 10
0.0
 20
0.0
 30
0.0
  0
POINT
  5
994
  8
DEFPOINTS
 62
     0
 10
2977.5275675026709905
 20
883.9590535886593443
 30
0.0
  0
POINT
  5
995
  8
DEFPOINTS
 62
     0
 10
2977.5275675026709905
 20
869.9590535886593443
 30
0.0
  0
POINT
  5
996
  8
DEFPOINTS
 62
     0
 10
2957.196303423811969
 20
869.9590535886593443
 30
0.0
  0
ENDBLK
  5
933
  8
0
  0
BLOCK
  8
0
  2
*D46
 70
     1
 10
0.0
 20
0.0
 30
0.0
  3
*D46
  1

  0
LINE
  5
997
  8
DIMENSIONS
 62
     0
 10
2976.9025675026709905
 20
869.9590535886593443
 30
0.0
 11
2955.9463034238128785
 21
869.9590535886593443
 31
0.0
  0
LINE
  5
998
  8
DIMENSIONS
 62
     0
 10
2976.9025675026709905
 20
859.9590535886592306
 30
0.0
 11
2955.9463034238128785
 21
859.9590535886592306
 31
0.0
  0
LINE
  5
999
  8
DIMENSIONS
 62
     0
 10
2957.1963034238128785
 20
867.4590535886593443
 30
0.0
 11
2957.1963034238128785
 21
862.4590535886593443
 31
0.0
  0
SOLID
  5
99A
  8
DIMENSIONS
 62
     0
 10
2956.7796367571468181
 20
867.4590535886593443
 30
0.0
 11
2957.6129700904798483
 21
867.4590535886593443
 31
0.0
 12
2957.1963034238128785
 22
869.9590535886593443
 32
0.0
 13
2957.1963034238128785
 23
869.9590535886593443
 33
0.0
  0
SOLID
  5
99B
  8
DIMENSIONS
 62
     0
 10
2956.7796367571468181
 20
862.4590535886593443
 30
0.0
 11
2957.6129700904798483
 21
862.4590535886593443
 31
0.0
 12
2957.1963034238128785
 22
859.9590535886592306
 32
0.0
 13
2957.1963034238128785
 23
859.9590535886592306
 33
0.0
  0
INSERT
  5
99C
  8
DIMENSIONS
  2
*U97
 10
0.0
 20
0.0
 30
0.0
  0
POINT
  5
99D
  8
DEFPOINTS
 62
     0
 10
2977.5275675026709905
 20
869.9590535886593443
 30
0.0
  0
POINT
  5
99E
  8
DEFPOINTS
 62
     0
 10
2977.5275675026709905
 20
859.9590535886592306
 30
0.0
  0
POINT
  5
99F
  8
DEFPOINTS
 62
     0
 10
2957.1963034238128785
 20
859.9590535886592306
 30
0.0
  0
ENDBLK
  5
93F
  8
0
  0
BLOCK
  8
0
  2
*D47
 70
     1
 10
0.0
 20
0.0
 30
0.0
  3
*D47
  1

  0
LINE
  5
94C
  8
DIMENSIONS
 62
     0
 10
2980.1525675026709905
 20
856.9590535886593443
 30
0.0
 11
2994.9023518743010754
 21
856.9590535886593443
 31
0.0
  0
LINE
  5
94D
  8
DIMENSIONS
 62
     0
 10
2979.6525675026709905
 20
851.9590535886592306
 30
0.0
 11
2994.9023518743010754
 21
851.9590535886592306
 31
0.0
  0
LINE
  5
94E
  8
DIMENSIONS
 62
     0
 10
2993.6523518743010754
 20
859.4590535886593443
 30
0.0
 11
2993.6523518743010754
 21
861.9590535886593443
 31
0.0
  0
LINE
  5
94F
  8
DIMENSIONS
 62
     0
 10
2993.6523518743010754
 20
849.4590535886593443
 30
0.0
 11
2993.6523518743010754
 21
836.8260385818381337
 31
0.0
  0
LINE
  5
950
  8
DIMENSIONS
 62
     0
 10
2993.6523518743010754
 20
856.9590535886593443
 30
0.0
 11
2993.6523518743010754
 21
851.9590535886592306
 31
0.0
  0
SOLID
  5
951
  8
DIMENSIONS
 62
     0
 10
2993.2356852076341056
 20
859.4590535886593443
 30
0.0
 11
2994.0690185409671358
 21
859.4590535886593443
 31
0.0
 12
2993.6523518743010754
 22
856.9590535886593443
 32
0.0
 13
2993.6523518743010754
 23
856.9590535886593443
 33
0.0
  0
SOLID
  5
952
  8
DIMENSIONS
 62
     0
 10
2993.2356852076341056
 20
849.4590535886593443
 30
0.0
 11
2994.0690185409671358
 21
849.4590535886593443
 31
0.0
 12
2993.6523518743010754
 22
851.9590535886592306
 32
0.0
 13
2993.6523518743010754
 23
851.9590535886592306
 33
0.0
  0
INSERT
  5
953
  8
DIMENSIONS
  2
*U93
 10
0.0
 20
0.0
 30
0.0
  0
POINT
  5
954
  8
DEFPOINTS
 62
     0
 10
2979.5275675026709905
 20
856.9590535886593443
 30
0.0
  0
POINT
  5
955
  8
DEFPOINTS
 62
     0
 10
2979.0275675026709905
 20
851.9590535886592306
 30
0.0
  0
POINT
  5
956
  8
DEFPOINTS
 62
     0
 10
2993.6523518743010754
 20
851.9590535886592306
 30
0.0
  0
ENDBLK
  5
94B
  8
0
  0
BLOCK
  8
0
  2
*D48
 70
     1
 10
0.0
 20
0.0
 30
0.0
  3
*D48
  1

  0
LINE
  5
968
  8
DIMENSIONS
 62
     0
 10
3031.527567502670081
 20
944.1840535886586849
 30
0.0
 11
3031.527567502670081
 21
967.5175545793374567
 31
0.0
  0
LINE
  5
969
  8
DIMENSIONS
 62
     0
 10
3038.527567502670081
 20
942.0840535886587759
 30
0.0
 11
3038.527567502670081
 21
967.5175545793374567
 31
0.0
  0
LINE
  5
96A
  8
DIMENSIONS
 62
     0
 10
3034.0275675026709905
 20
966.2675545793374567
 30
0.0
 11
3036.027567502670081
 21
966.2675545793374567
 31
0.0
  0
SOLID
  5
96B
  8
DIMENSIONS
 62
     0
 10
3034.0275675026709905
 20
966.6842212460040855
 30
0.0
 11
3034.0275675026709905
 21
965.850887912670828
 31
0.0
 12
3031.527567502670081
 22
966.2675545793374567
 32
0.0
 13
3031.527567502670081
 23
966.2675545793374567
 33
0.0
  0
SOLID
  5
96C
  8
DIMENSIONS
 62
     0
 10
3036.027567502670081
 20
966.6842212460040855
 30
0.0
 11
3036.027567502670081
 21
965.850887912670828
 31
0.0
 12
3038.527567502670081
 22
966.2675545793374567
 32
0.0
 13
3038.527567502670081
 23
966.2675545793374567
 33
0.0
  0
INSERT
  5
96D
  8
DIMENSIONS
  2
*U95
 10
0.0
 20
0.0
 30
0.0
  0
POINT
  5
96E
  8
DEFPOINTS
 62
     0
 10
3031.527567502670081
 20
943.5590535886586849
 30
0.0
  0
POINT
  5
96F
  8
DEFPOINTS
 62
     0
 10
3038.527567502670081
 20
941.4590535886587759
 30
0.0
  0
POINT
  5
970
  8
DEFPOINTS
 62
     0
 10
3038.527567502670081
 20
966.2675545793374567
 30
0.0
  0
ENDBLK
  5
967
  8
0
  0
BLOCK
  8
0
  2
*D49
 70
     1
 10
0.0
 20
0.0
 30
0.0
  3
*D49
  1

  0
LINE
  5
9D4
  8
DIMENSIONS
 62
     0
 10
2983.527567502670081
 20
943.5840535886588896
 30
0.0
 11
2983.527567502670081
 21
967.5175545793374567
 31
0.0
  0
LINE
  5
9D5
  8
DIMENSIONS
 62
     0
 10
2978.527567502670081
 20
942.0840535886587759
 30
0.0
 11
2978.527567502670081
 21
967.5175545793374567
 31
0.0
  0
LINE
  5
9D6
  8
DIMENSIONS
 62
     0
 10
2986.027567502670081
 20
966.2675545793374567
 30
0.0
 11
2988.527567502670081
 21
966.2675545793374567
 31
0.0
  0
LINE
  5
9D7
  8
DIMENSIONS
 62
     0
 10
2976.027567502670081
 20
966.2675545793374567
 30
0.0
 11
2963.3945524958489841
 21
966.2675545793374567
 31
0.0
  0
LINE
  5
9D8
  8
DIMENSIONS
 62
     0
 10
2983.527567502670081
 20
966.2675545793374567
 30
0.0
 11
2978.527567502670081
 21
966.2675545793374567
 31
0.0
  0
SOLID
  5
9D9
  8
DIMENSIONS
 62
     0
 10
2986.027567502670081
 20
966.6842212460040855
 30
0.0
 11
2986.027567502670081
 21
965.850887912670828
 31
0.0
 12
2983.527567502670081
 22
966.2675545793374567
 32
0.0
 13
2983.527567502670081
 23
966.2675545793374567
 33
0.0
  0
SOLID
  5
9DA
  8
DIMENSIONS
 62
     0
 10
2976.027567502670081
 20
966.6842212460040855
 30
0.0
 11
2976.027567502670081
 21
965.850887912670828
 31
0.0
 12
2978.527567502670081
 22
966.2675545793374567
 32
0.0
 13
2978.527567502670081
 23
966.2675545793374567
 33
0.0
  0
INSERT
  5
9DB
  8
DIMENSIONS
  2
*U99
 10
0.0
 20
0.0
 30
0.0
  0
POINT
  5
9DC
  8
DEFPOINTS
 62
     0
 10
2983.527567502670081
 20
942.9590535886588896
 30
0.0
  0
POINT
  5
9DD
  8
DEFPOINTS
 62
     0
 10
2978.527567502670081
 20
941.4590535886587759
 30
0.0
  0
POINT
  5
9DE
  8
DEFPOINTS
 62
     0
 10
2978.527567502670081
 20
966.2675545793374567
 30
0.0
  0
ENDBLK
  5
9B0
  8
0
  0
BLOCK
  8
0
  2
*D50
 70
     1
 10
0.0
 20
0.0
 30
0.0
  3
*D50
  1

  0
LINE
  5
9EE
  8
DIMENSIONS
 62
     0
 10
2978.4025675026709905
 20
941.9590535886593443
 30
0.0
 11
2955.9463034238128785
 21
941.9590535886593443
 31
0.0
  0
LINE
  5
9EF
  8
DIMENSIONS
 62
     0
 10
2976.3025675026710815
 20
934.9590535886593443
 30
0.0
 11
2955.9463034238128785
 21
934.9590535886593443
 31
0.0
  0
LINE
  5
9F0
  8
DIMENSIONS
 62
     0
 10
2957.1963034238128785
 20
939.4590535886592306
 30
0.0
 11
2957.1963034238128785
 21
937.459053588659458
 31
0.0
  0
SOLID
  5
9F1
  8
DIMENSIONS
 62
     0
 10
2956.7796367571468181
 20
939.4590535886592306
 30
0.0
 11
2957.6129700904798483
 21
939.4590535886592306
 31
0.0
 12
2957.1963034238128785
 22
941.9590535886593443
 32
0.0
 13
2957.1963034238128785
 23
941.9590535886593443
 33
0.0
  0
SOLID
  5
9F2
  8
DIMENSIONS
 62
     0
 10
2956.7796367571468181
 20
937.459053588659458
 30
0.0
 11
2957.6129700904798483
 21
937.459053588659458
 31
0.0
 12
2957.1963034238128785
 22
934.9590535886593443
 32
0.0
 13
2957.1963034238128785
 23
934.9590535886593443
 33
0.0
  0
INSERT
  5
9F3
  8
DIMENSIONS
  2
*U100
 10
0.0
 20
0.0
 30
0.0
  0
POINT
  5
9F4
  8
DEFPOINTS
 62
     0
 10
2979.0275675026709905
 20
941.9590535886593443
 30
0.0
  0
POINT
  5
9F5
  8
DEFPOINTS
 62
     0
 10
2976.9275675026710815
 20
934.9590535886593443
 30
0.0
  0
POINT
  5
9F6
  8
DEFPOINTS
 62
     0
 10
2957.1963034238128785
 20
934.9590535886593443
 30
0.0
  0
ENDBLK
  5
9E3
  8
0
  0
BLOCK
  8
0
  2
*D51
 70
     1
 10
0.0
 20
0.0
 30
0.0
  3
*D51
  1

  0
LINE
  5
A06
  8
DIMENSIONS
 62
     0
 10
2976.3025675026710815
 20
934.9590535886593443
 30
0.0
 11
2956.1831686218779396
 21
934.9590535886593443
 31
0.0
  0
LINE
  5
A07
  8
DIMENSIONS
 62
     0
 10
2976.3025675026710815
 20
923.959053588659458
 30
0.0
 11
2956.1831686218779396
 21
923.959053588659458
 31
0.0
  0
LINE
  5
A08
  8
DIMENSIONS
 62
     0
 10
2957.4331686218779396
 20
932.4590535886593443
 30
0.0
 11
2957.4331686218779396
 21
926.459053588659458
 31
0.0
  0
SOLID
  5
A09
  8
DIMENSIONS
 62
     0
 10
2957.0165019552109698
 20
932.4590535886593443
 30
0.0
 11
2957.8498352885449094
 21
932.4590535886593443
 31
0.0
 12
2957.4331686218779396
 22
934.9590535886593443
 32
0.0
 13
2957.4331686218779396
 23
934.9590535886593443
 33
0.0
  0
SOLID
  5
A0A
  8
DIMENSIONS
 62
     0
 10
2957.0165019552109698
 20
926.459053588659458
 30
0.0
 11
2957.8498352885449094
 21
926.459053588659458
 31
0.0
 12
2957.4331686218779396
 22
923.959053588659458
 32
0.0
 13
2957.4331686218779396
 23
923.959053588659458
 33
0.0
  0
INSERT
  5
A0B
  8
DIMENSIONS
  2
*U101
 10
0.0
 20
0.0
 30
0.0
  0
POINT
  5
A0C
  8
DEFPOINTS
 62
     0
 10
2976.9275675026710815
 20
934.9590535886593443
 30
0.0
  0
POINT
  5
A0D
  8
DEFPOINTS
 62
     0
 10
2976.9275675026710815
 20
923.959053588659458
 30
0.0
  0
POINT
  5
A0E
  8
DEFPOINTS
 62
     0
 10
2957.4331686218779396
 20
923.959053588659458
 30
0.0
  0
ENDBLK
  5
9FB
  8
0
  0
BLOCK
  8
0
  2
*D52
 70
     1
 10
0.0
 20
0.0
 30
0.0
  3
*D52
  1

  0
LINE
  5
A1E
  8
DIMENSIONS
 62
     0
 10
2976.3025675026710815
 20
934.9590535886593443
 30
0.0
 11
2955.9463034238151522
 21
934.9590535886593443
 31
0.0
  0
LINE
  5
A1F
  8
DIMENSIONS
 62
     0
 10
2976.3025675026710815
 20
923.959053588659458
 30
0.0
 11
2955.9463034238151522
 21
923.959053588659458
 31
0.0
  0
LINE
  5
A20
  8
DIMENSIONS
 62
     0
 10
2957.1963034238151522
 20
932.4590535886593443
 30
0.0
 11
2957.1963034238151522
 21
926.459053588659458
 31
0.0
  0
SOLID
  5
A21
  8
DIMENSIONS
 62
     0
 10
2956.7796367571481824
 20
932.4590535886593443
 30
0.0
 11
2957.6129700904812125
 21
932.4590535886593443
 31
0.0
 12
2957.1963034238151522
 22
934.9590535886593443
 32
0.0
 13
2957.1963034238151522
 23
934.9590535886593443
 33
0.0
  0
SOLID
  5
A22
  8
DIMENSIONS
 62
     0
 10
2956.7796367571481824
 20
926.459053588659458
 30
0.0
 11
2957.6129700904812125
 21
926.459053588659458
 31
0.0
 12
2957.1963034238151522
 22
923.959053588659458
 32
0.0
 13
2957.1963034238151522
 23
923.959053588659458
 33
0.0
  0
INSERT
  5
A23
  8
DIMENSIONS
  2
*U102
 10
0.0
 20
0.0
 30
0.0
  0
POINT
  5
A24
  8
DEFPOINTS
 62
     0
 10
2976.9275675026710815
 20
934.9590535886593443
 30
0.0
  0
POINT
  5
A25
  8
DEFPOINTS
 62
     0
 10
2976.9275675026710815
 20
923.959053588659458
 30
0.0
  0
POINT
  5
A26
  8
DEFPOINTS
 62
     0
 10
2957.1963034238151522
 20
923.959053588659458
 30
0.0
  0
ENDBLK
  5
A13
  8
0
  0
BLOCK
  8
0
  2
*U54
 70
     1
 10
0.0
 20
0.0
 30
0.0
  3
*U54
  1

  0
TEXT
  5
BE5
  8
0
 62
     0
 10
2551.8231947070971728
 20
978.3526025122905594
 30
0.0
 40
2.5
  1
11
  0
ENDBLK
  5
BE7
  8
0
  0
BLOCK
  8
0
  2
*U55
 70
     1
 10
0.0
 20
0.0
 30
0.0
  3
*U55
  1

  0
TEXT
  5
BE9
  8
0
 62
     0
 10
2563.0946817466601715
 20
978.3526025122914689
 30
0.0
 40
2.5
  1
12
  0
ENDBLK
  5
BEB
  8
0
  0
BLOCK
  8
0
  2
*U56
 70
     1
 10
0.0
 20
0.0
 30
0.0
  3
*U56
  1

  0
TEXT
  5
BED
  8
0
 62
     0
 10
2542.461837271899185
 20
979.4038007323164265
 30
0.0
 40
2.5
  1
6,5
  0
ENDBLK
  5
BEF
  8
0
  0
BLOCK
  8
0
  2
*U57
 70
     1
 10
0.0
 20
0.0
 30
0.0
  3
*U57
  1

  0
TEXT
  5
BF1
  8
0
 62
     0
 10
2531.284493497494168
 20
892.5330574319958714
 30
0.0
 40
2.5
  1
13
 50
90.0
  0
ENDBLK
  5
BF3
  8
0
  0
BLOCK
  8
0
  2
*U58
 70
     1
 10
0.0
 20
0.0
 30
0.0
  3
*U58
  1

  0
TEXT
  5
BF5
  8
0
 62
     0
 10
2527.6044036815219442
 20
882.6125253719687862
 30
0.0
 40
2.5
  1
5
 50
90.0
  0
ENDBLK
  5
BF7
  8
0
  0
BLOCK
  8
0
  2
*U59
 70
     1
 10
0.0
 20
0.0
 30
0.0
  3
*U59
  1

  0
TEXT
  5
BF9
  8
0
 62
     0
 10
2532.5690115041279569
 20
967.6125253719686725
 30
0.0
 40
2.5
  1
5
 50
90.0
  0
ENDBLK
  5
BFB
  8
0
  0
BLOCK
  8
0
  2
*U60
 70
     1
 10
0.0
 20
0.0
 30
0.0
  3
*U60
  1

  0
TEXT
  5
BFD
  8
0
 62
     0
 10
2534.8561642285089874
 20
892.7743602969345602
 30
0.0
 40
2.5
  1
11
 50
90.0
  0
ENDBLK
  5
BFF
  8
0
  0
BLOCK
  8
0
  2
*U61
 70
     1
 10
0.0
 20
0.0
 30
0.0
  3
*U61
  1

  0
TEXT
  5
C01
  8
0
 62
     0
 10
2534.8135312135018467
 20
905.5236781686944596
 30
0.0
 40
2.5
  1
15
 50
90.0
  0
ENDBLK
  5
C03
  8
0
  0
BLOCK
  8
0
  2
*U62
 70
     1
 10
0.0
 20
0.0
 30
0.0
  3
*U62
  1

  0
TEXT
  5
C05
  8
DIMENSIONS
 62
     0
 10
2569.1970009826759451
 20
1006.6405807732299991
 30
0.0
 40
2.5
  1
59
  0
ENDBLK
  5
C07
  8
0
  0
BLOCK
  8
0
  2
*U63
 70
     1
 10
0.0
 20
0.0
 30
0.0
  3
*U63
  1

  0
TEXT
  5
C09
  8
DIMENSIONS
 62
     0
 10
2517.6247642786011056
 20
951.4332961768800487
 30
0.0
 40
2.5
  1
5 MIN
 50
90.0
  0
ENDBLK
  5
C0B
  8
0
  0
BLOCK
  8
0
  2
*U64
 70
     1
 10
0.0
 20
0.0
 30
0.0
  3
*U64
  1

  0
TEXT
  5
C0D
  8
DIMENSIONS
 62
     0
 10
2609.764989907861036
 20
866.2279863534831748
 30
0.0
 40
2.5
  1
5 MIN
  0
ENDBLK
  5
C0F
  8
0
  0
BLOCK
  8
0
  2
*U65
 70
     1
 10
0.0
 20
0.0
 30
0.0
  3
*U65
  1

  0
TEXT
  5
C11
  8
DIMENSIONS
 62
     0
 10
2588.2445260606577904
 20
872.4426892278096375
 30
0.0
 40
2.5
  1
12
  0
ENDBLK
  5
C13
  8
0
  0
BLOCK
  8
0
  2
*U66
 70
     1
 10
0.0
 20
0.0
 30
0.0
  3
*U66
  1

  0
TEXT
  5
C15
  8
DIMENSIONS
 62
     0
 10
2560.2445260606577904
 20
872.4426892278122523
 30
0.0
 40
2.5
  1
12
  0
ENDBLK
  5
C17
  8
0
  0
BLOCK
  8
0
  2
*U67
 70
     1
 10
0.0
 20
0.0
 30
0.0
  3
*U67
  1

  0
TEXT
  5
C19
  8
DIMENSIONS
 62
     0
 10
2574.2325888164550634
 20
872.4853222428191657
 30
0.0
 40
2.5
  1
16
  0
ENDBLK
  5
C1B
  8
0
  0
BLOCK
  8
0
  2
*U68
 70
     1
 10
0.0
 20
0.0
 30
0.0
  3
*U68
  1

  0
TEXT
  5
C1D
  8
DIMENSIONS
 62
     0
 10
2637.4522955811748943
 20
915.9795993830324505
 30
0.0
 40
2.5
  1
11
 50
90.0
  0
ENDBLK
  5
C1F
  8
0
  0
BLOCK
  8
0
  2
*U69
 70
     1
 10
0.0
 20
0.0
 30
0.0
  3
*U69
  1

  0
TEXT
  5
C21
  8
DIMENSIONS
 62
     0
 10
2637.4522955811748943
 20
904.2510864225957903
 30
0.0
 40
2.5
  1
12
 50
90.0
  0
ENDBLK
  5
C23
  8
0
  0
BLOCK
  8
0
  2
*U70
 70
     1
 10
0.0
 20
0.0
 30
0.0
  3
*U70
  1

  0
TEXT
  5
C25
  8
DIMENSIONS
 62
     0
 10
2637.4522955811748943
 20
892.251086422595904
 30
0.0
 40
2.5
  1
12
 50
90.0
  0
ENDBLK
  5
C27
  8
0
  0
BLOCK
  8
0
  2
*U71
 70
     1
 10
0.0
 20
0.0
 30
0.0
  3
*U71
  1

  0
TEXT
  5
C29
  8
DIMENSIONS
 62
     0
 10
2637.4522955811748943
 20
880.9795993830324505
 30
0.0
 40
2.5
  1
11
 50
90.0
  0
ENDBLK
  5
C2B
  8
0
  0
BLOCK
  8
0
  2
*U72
 70
     1
 10
0.0
 20
0.0
 30
0.0
  3
*U72
  1

  0
TEXT
  5
C2D
  8
DIMENSIONS
 62
     0
 10
2652.375718219528153
 20
898.3670482234143719
 30
0.0
 40
2.5
  1
60
 50
90.0
  0
ENDBLK
  5
C2F
  8
0
  0
BLOCK
  8
0
  2
*U73
 70
     1
 10
0.0
 20
0.0
 30
0.0
  3
*U73
  1

  0
TEXT
  5
C31
  8
DIMENSIONS
 62
     0
 10
2619.2488423394738675
 20
952.2903996146933423
 30
0.0
 40
2.5
  1
5 MIN
  0
ENDBLK
  5
C33
  8
0
  0
BLOCK
  8
0
  2
*U74
 70
     1
 10
0.0
 20
0.0
 30
0.0
  3
*U74
  1

  0
TEXT
  5
C35
  8
DIMENSIONS
 62
     0
 10
2566.8375190106889931
 20
965.2958236067040616
 30
0.0
 40
2.5
  1
90
  0
ENDBLK
  5
C37
  8
0
  0
BLOCK
  8
0
  2
*U75
 70
     1
 10
0.0
 20
0.0
 30
0.0
  3
*U75
  1

  0
TEXT
  5
C39
  8
DIMENSIONS
 62
     0
 10
2563.7283784922710765
 20
952.2477665996863152
 30
0.0
 40
2.5
  1
12
  0
ENDBLK
  5
C3B
  8
0
  0
BLOCK
  8
0
  2
*U76
 70
     1
 10
0.0
 20
0.0
 30
0.0
  3
*U76
  1

  0
TEXT
  5
C65
  8
DIMENSIONS
 62
     0
 10
2819.4457325954967928
 20
966.8925545793374567
 30
0.0
 40
2.5
  1
11
  0
ENDBLK
  5
C67
  8
0
  0
BLOCK
  8
0
  2
*U77
 70
     1
 10
0.0
 20
0.0
 30
0.0
  3
*U77
  1

  0
TEXT
  5
C69
  8
DIMENSIONS
 62
     0
 10
2830.7172196350597915
 20
966.8925545793374567
 30
0.0
 40
2.5
  1
12
  0
ENDBLK
  5
C6B
  8
0
  0
BLOCK
  8
0
  2
*U78
 70
     1
 10
0.0
 20
0.0
 30
0.0
  3
*U78
  1

  0
TEXT
  5
C6D
  8
DIMENSIONS
 62
     0
 10
2842.7172196350597915
 20
966.8925545793374567
 30
0.0
 40
2.5
  1
12
  0
ENDBLK
  5
C6F
  8
0
  0
BLOCK
  8
0
  2
*U79
 70
     1
 10
0.0
 20
0.0
 30
0.0
  3
*U79
  1

  0
TEXT
  5
C71
  8
DIMENSIONS
 62
     0
 10
2854.4457325954967928
 20
966.8925545793374567
 30
0.0
 40
2.5
  1
11
  0
ENDBLK
  5
C73
  8
0
  0
BLOCK
  8
0
  2
*U80
 70
     1
 10
0.0
 20
0.0
 30
0.0
  3
*U80
  1

  0
TEXT
  5
C75
  8
DIMENSIONS
 62
     0
 10
2836.8331814358780321
 20
981.9012432477047696
 30
0.0
 40
2.5
  1
60
  0
ENDBLK
  5
C77
  8
0
  0
BLOCK
  8
0
  2
*U81
 70
     1
 10
0.0
 20
0.0
 30
0.0
  3
*U81
  1

  0
TEXT
  5
C79
  8
DIMENSIONS
 62
     0
 10
2786.7587386394170608
 20
947.4391013376350656
 30
0.0
 40
2.5
  1
5 MIN
 50
90.0
  0
ENDBLK
  5
C7B
  8
0
  0
BLOCK
  8
0
  2
*U82
 70
     1
 10
0.0
 20
0.0
 30
0.0
  3
*U82
  1

  0
TEXT
  5
C7D
  8
DIMENSIONS
 62
     0
 10
2773.7533146474052046
 20
895.0277780088493955
 30
0.0
 40
2.5
  1
90
 50
90.0
  0
ENDBLK
  5
C7F
  8
0
  0
BLOCK
  8
0
  2
*U83
 70
     1
 10
0.0
 20
0.0
 30
0.0
  3
*U83
  1

  0
TEXT
  5
C81
  8
DIMENSIONS
 62
     0
 10
2786.8013716544228373
 20
891.91863749043182
 30
0.0
 40
2.5
  1
12
 50
90.0
  0
ENDBLK
  5
C83
  8
0
  0
BLOCK
  8
0
  2
*U84
 70
     1
 10
0.0
 20
0.0
 30
0.0
  3
*U84
  1

  0
TEXT
  5
C85
  8
DIMENSIONS
 62
     0
 10
2786.7587386394179703
 20
877.9067002462300024
 30
0.0
 40
2.5
  1
16
 50
90.0
  0
ENDBLK
  5
C87
  8
0
  0
BLOCK
  8
0
  2
*U85
 70
     1
 10
0.0
 20
0.0
 30
0.0
  3
*U85
  1

  0
TEXT
  5
C89
  8
DIMENSIONS
 62
     0
 10
2786.8013716544260205
 20
863.9186374904319337
 30
0.0
 40
2.5
  1
12
 50
90.0
  0
ENDBLK
  5
C8B
  8
0
  0
BLOCK
  8
0
  2
*U86
 70
     1
 10
0.0
 20
0.0
 30
0.0
  3
*U86
  1

  0
TEXT
  5
C8D
  8
DIMENSIONS
 62
     0
 10
2823.2147870899079862
 20
837.3060863308138551
 30
0.0
 40
2.5
  1
5 MIN
 50
90.0
  0
ENDBLK
  5
C8F
  8
0
  0
BLOCK
  8
0
  2
*U87
 70
     1
 10
0.0
 20
0.0
 30
0.0
  3
*U87
  1

  0
TEXT
  5
CB9
  8
DIMENSIONS
 62
     0
 10
2989.2156643648809222
 20
966.8925545793374567
 30
0.0
 40
2.5
  1
11
  0
ENDBLK
  5
CBB
  8
0
  0
BLOCK
  8
0
  2
*U88
 70
     1
 10
0.0
 20
0.0
 30
0.0
  3
*U88
  1

  0
TEXT
  5
CBD
  8
DIMENSIONS
 62
     0
 10
3000.4871514044439209
 20
966.8925545793374567
 30
0.0
 40
2.5
  1
12
  0
ENDBLK
  5
CBF
  8
0
  0
BLOCK
  8
0
  2
*U89
 70
     1
 10
0.0
 20
0.0
 30
0.0
  3
*U89
  1

  0
TEXT
  5
CC1
  8
DIMENSIONS
 62
     0
 10
3012.4871514044439209
 20
966.8925545793374567
 30
0.0
 40
2.5
  1
12
  0
ENDBLK
  5
CC3
  8
0
  0
BLOCK
  8
0
  2
*U90
 70
     1
 10
0.0
 20
0.0
 30
0.0
  3
*U90
  1

  0
TEXT
  5
CC5
  8
DIMENSIONS
 62
     0
 10
3024.2156643648809222
 20
966.8925545793374567
 30
0.0
 40
2.5
  1
11
  0
ENDBLK
  5
CC7
  8
0
  0
BLOCK
  8
0
  2
*U91
 70
     1
 10
0.0
 20
0.0
 30
0.0
  3
*U91
  1

  0
TEXT
  5
CC9
  8
DIMENSIONS
 62
     0
 10
3006.6031132052621615
 20
981.9012432477047696
 30
0.0
 40
2.5
  1
60
  0
ENDBLK
  5
CCB
  8
0
  0
BLOCK
  8
0
  2
*U92
 70
     1
 10
0.0
 20
0.0
 30
0.0
  3
*U92
  1

  0
TEXT
  5
CCD
  8
DIMENSIONS
 62
     0
 10
2943.523246416791153
 20
895.0277780088492818
 30
0.0
 40
2.5
  1
90
 50
90.0
  0
ENDBLK
  5
CCF
  8
0
  0
BLOCK
  8
0
  2
*U93
 70
     1
 10
0.0
 20
0.0
 30
0.0
  3
*U93
  1

  0
TEXT
  5
CD1
  8
DIMENSIONS
 62
     0
 10
2992.9847188592939347
 20
837.3060863308136277
 30
0.0
 40
2.5
  1
5 MIN
 50
90.0
  0
ENDBLK
  5
CD3
  8
0
  0
BLOCK
  8
0
  2
*U94
 70
     1
 10
0.0
 20
0.0
 30
0.0
  3
*U94
  1

  0
TEXT
  5
CD5
  8
DIMENSIONS
 62
     0
 10
2958.0695981032081363
 20
947.2037670947973993
 30
0.0
 40
2.5
  1
1 MIN
 50
90.0
  0
ENDBLK
  5
CD7
  8
0
  0
BLOCK
  8
0
  2
*U95
 70
     1
 10
0.0
 20
0.0
 30
0.0
  3
*U95
  1

  0
TEXT
  5
CD9
  8
DIMENSIONS
 62
     0
 10
3034.0529767796138003
 20
966.8925545793374567
 30
0.0
 40
2.5
  1
7
  0
ENDBLK
  5
CDB
  8
0
  0
BLOCK
  8
0
  2
*U96
 70
     1
 10
0.0
 20
0.0
 30
0.0
  3
*U96
  1

  0
TEXT
  5
CDD
  8
DIMENSIONS
 62
     0
 10
2956.5713034238110595
 20
874.9109635477307165
 30
0.0
 40
2.5
  1
14
 50
90.0
  0
ENDBLK
  5
CDF
  8
0
  0
BLOCK
  8
0
  2
*U97
 70
     1
 10
0.0
 20
0.0
 30
0.0
  3
*U97
  1

  0
TEXT
  5
CE1
  8
DIMENSIONS
 62
     0
 10
2956.5286704088048282
 20
862.9101108874302781
 30
0.0
 40
2.5
  1
10
 50
90.0
  0
ENDBLK
  5
CE3
  8
0
  0
BLOCK
  8
0
  2
*U98
 70
     1
 10
0.0
 20
0.0
 30
0.0
  3
*U98
  1

  0
TEXT
  5
CE5
  8
DIMENSIONS
 62
     0
 10
2956.5286704088039187
 20
886.9101108874302781
 30
0.0
 40
2.5
  1
10
 50
90.0
  0
ENDBLK
  5
CE7
  8
0
  0
BLOCK
  8
0
  2
*U99
 70
     1
 10
0.0
 20
0.0
 30
0.0
  3
*U99
  1

  0
TEXT
  5
CE9
  8
DIMENSIONS
 62
     0
 10
2963.8746002448251602
 20
966.9351875943443702
 30
0.0
 40
2.5
  1
5 MIN
  0
ENDBLK
  5
CEB
  8
0
  0
BLOCK
  8
0
  2
*U100
 70
     1
 10
0.0
 20
0.0
 30
0.0
  3
*U100
  1

  0
TEXT
  5
CED
  8
DIMENSIONS
 62
     0
 10
2956.571303423811969
 20
937.4844628656021541
 30
0.0
 40
2.5
  1
7
 50
90.0
  0
ENDBLK
  5
CEF
  8
0
  0
BLOCK
  8
0
  2
*U101
 70
     1
 10
0.0
 20
0.0
 30
0.0
  3
*U101
  1

  0
TEXT
  5
CF1
  8
DIMENSIONS
 62
     0
 10
2956.8081686218770301
 20
927.6471504508683665
 30
0.0
 40
2.5
  1
11
 50
90.0
  0
ENDBLK
  5
CF3
  8
0
  0
BLOCK
  8
0
  2
*U102
 70
     1
 10
0.0
 20
0.0
 30
0.0
  3
*U102
  1

  0
TEXT
  5
CF5
  8
DIMENSIONS
 62
     0
 10
2956.571303423813788
 20
927.6471504508683665
 30
0.0
 40
2.5
  1
11
 50
90.0
  0
ENDBLK
  5
CF7
  8
0
  0
ENDSEC
  0
SECTION
  2
ENTITIES
  0
LINE
  5
70A
  8
OUTLINE
 10
2809.2576357332859516
 20
851.9590535886588896
 30
0.0
 11
2868.2576357332859516
 21
851.9590535886588896
 31
0.0
  0
ARC
  5
70B
  8
OUTLINE
 10
2809.2576357332859516
 20
852.4590535886587759
 30
0.0
 40
0.5
 50
180.0
 51
270.0
  0
LINE
  5
70C
  8
OUTLINE
 10
2868.2576357332859516
 20
941.9590535886588896
 30
0.0
 11
2809.2576357332859516
 21
941.9590535886588896
 31
0.0
  0
LINE
  5
70D
  8
OUTLINE
 10
2808.7576357332859516
 20
941.4590535886587759
 30
0.0
 11
2808.7576357332859516
 21
852.4590535886587759
 31
0.0
  0
ARC
  5
70E
  8
OUTLINE
 10
2809.2576357332859516
 20
941.4590535886587759
 30
0.0
 40
0.5
 50
90.0
 51
180.0
  0
POLYLINE
  5
70F
  8
COMPONENTS
 66
     1
 10
0.0
 20
0.0
 30
0.0
 70
     1
  0
VERTEX
  5
C3C
  8
COMPONENTS
 10
2834.5826357332871339
 20
851.9590535886588896
 30
0.0
  0
VERTEX
  5
C3D
  8
COMPONENTS
 10
2842.9326357332861335
 20
851.9590535886588896
 30
0.0
  0
VERTEX
  5
C3E
  8
COMPONENTS
 10
2842.9326357332861335
 20
861.8290535886587804
 30
0.0
  0
VERTEX
  5
C3F
  8
COMPONENTS
 10
2834.5826357332871339
 20
861.8290535886587804
 30
0.0
  0
SEQEND
  5
C40
  8
COMPONENTS
  0
POLYLINE
  5
710
  8
COMPONENTS
 66
     1
 10
0.0
 20
0.0
 30
0.0
 70
     1
  0
VERTEX
  5
C41
  8
COMPONENTS
 10
2834.5826357332871339
 20
933.6890535886587941
 30
0.0
  0
VERTEX
  5
C42
  8
COMPONENTS
 10
2842.9326357332861335
 20
933.6890535886587941
 30
0.0
  0
VERTEX
  5
C43
  8
COMPONENTS
 10
2842.9326357332861335
 20
943.5590535886586849
 30
0.0
  0
VERTEX
  5
C44
  8
COMPONENTS
 10
2834.5826357332871339
 20
943.5590535886586849
 30
0.0
  0
SEQEND
  5
C45
  8
COMPONENTS
  0
POLYLINE
  5
711
  8
COMPONENTS
 66
     1
 10
0.0
 20
0.0
 30
0.0
 70
     1
  0
VERTEX
  5
C46
  8
COMPONENTS
 10
2807.7576357332859516
 20
930.9590535886587759
 30
0.0
  0
VERTEX
  5
C47
  8
COMPONENTS
 10
2809.7576357332859516
 20
930.9590535886587759
 30
0.0
  0
VERTEX
  5
C48
  8
COMPONENTS
 10
2809.7576357332859516
 20
936.9590535886587759
 30
0.0
  0
VERTEX
  5
C49
  8
COMPONENTS
 10
2807.7576357332859516
 20
936.9590535886587759
 30
0.0
  0
SEQEND
  5
C4A
  8
COMPONENTS
  0
POLYLINE
  5
712
  8
COMPONENTS
 66
     1
 10
0.0
 20
0.0
 30
0.0
 70
     1
  0
VERTEX
  5
C4B
  8
COMPONENTS
 10
2808.7576357332859516
 20
904.659053588658594
 30
0.0
  0
VERTEX
  5
C4C
  8
COMPONENTS
 10
2833.7576357332859516
 20
904.659053588658594
 30
0.0
  0
VERTEX
  5
C4D
  8
COMPONENTS
 10
2833.7576357332859516
 20
924.6590535886587077
 30
0.0
  0
VERTEX
  5
C4E
  8
COMPONENTS
 10
2808.7576357332859516
 20
924.6590535886587077
 30
0.0
  0
SEQEND
  5
C4F
  8
COMPONENTS
  0
POLYLINE
  5
713
  8
COMPONENTS
 66
     1
 10
0.0
 20
0.0
 30
0.0
 70
     1
  0
VERTEX
  5
C50
  8
COMPONENTS
 10
2807.7576357332859516
 20
862.9590535886587759
 30
0.0
  0
VERTEX
  5
C51
  8
COMPONENTS
 10
2809.7576357332859516
 20
862.9590535886587759
 30
0.0
  0
VERTEX
  5
C52
  8
COMPONENTS
 10
2809.7576357332859516
 20
856.9590535886587759
 30
0.0
  0
VERTEX
  5
C53
  8
COMPONENTS
 10
2807.7576357332859516
 20
856.9590535886587759
 30
0.0
  0
SEQEND
  5
C54
  8
COMPONENTS
  0
POLYLINE
  5
714
  8
COMPONENTS
 66
     1
 10
0.0
 20
0.0
 30
0.0
 70
     1
  0
VERTEX
  5
C55
  8
COMPONENTS
 10
2807.7576357332859516
 20
874.9590535886588896
 30
0.0
  0
VERTEX
  5
C56
  8
COMPONENTS
 10
2809.7576357332859516
 20
874.9590535886588896
 30
0.0
  0
VERTEX
  5
C57
  8
COMPONENTS
 10
2809.7576357332859516
 20
868.9590535886588896
 30
0.0
  0
VERTEX
  5
C58
  8
COMPONENTS
 10
2807.7576357332859516
 20
868.9590535886588896
 30
0.0
  0
SEQEND
  5
C59
  8
COMPONENTS
  0
LINE
  5
715
  8
COMPONENTS
 10
2812.2576357332859516
 20
926.3590535886589805
 30
0.0
 11
2819.2576357332859516
 21
926.3590535886589805
 31
0.0
  0
LINE
  5
716
  8
COMPONENTS
 10
2819.2576357332859516
 20
926.3590535886589805
 30
0.0
 11
2819.2576357332859516
 21
941.0590535886586849
 31
0.0
  0
LINE
  5
717
  8
COMPONENTS
 10
2819.2576357332859516
 20
941.0590535886586849
 30
0.0
 11
2812.2576357332859516
 21
941.0590535886586849
 31
0.0
  0
LINE
  5
718
  8
COMPONENTS
 10
2818.7576357332859516
 20
943.5590535886586849
 30
0.0
 11
2812.7576357332859516
 21
943.5590535886586849
 31
0.0
  0
LINE
  5
719
  8
COMPONENTS
 10
2812.2576357332859516
 20
941.0590535886586849
 30
0.0
 11
2812.2576357332859516
 21
926.3590535886589805
 31
0.0
  0
LINE
  5
71A
  8
COMPONENTS
 10
2812.7576357332859516
 20
943.5590535886586849
 30
0.0
 11
2812.7576357332859516
 21
941.0590535886586849
 31
0.0
  0
LINE
  5
71B
  8
COMPONENTS
 10
2818.7576357332859516
 20
943.5590535886586849
 30
0.0
 11
2818.7576357332859516
 21
941.0590535886586849
 31
0.0
  0
LINE
  5
71C
  8
COMPONENTS
 10
2823.2576357332859516
 20
926.3590535886589805
 30
0.0
 11
2830.2576357332859516
 21
926.3590535886589805
 31
0.0
  0
LINE
  5
71D
  8
COMPONENTS
 10
2830.2576357332859516
 20
926.3590535886589805
 30
0.0
 11
2830.2576357332859516
 21
941.0590535886586849
 31
0.0
  0
LINE
  5
71E
  8
COMPONENTS
 10
2830.2576357332859516
 20
941.0590535886586849
 30
0.0
 11
2823.2576357332859516
 21
941.0590535886586849
 31
0.0
  0
LINE
  5
71F
  8
COMPONENTS
 10
2829.7576357332859516
 20
943.5590535886586849
 30
0.0
 11
2823.7576357332859516
 21
943.5590535886586849
 31
0.0
  0
LINE
  5
720
  8
COMPONENTS
 10
2823.2576357332859516
 20
941.0590535886586849
 30
0.0
 11
2823.2576357332859516
 21
926.3590535886589805
 31
0.0
  0
LINE
  5
721
  8
COMPONENTS
 10
2823.7576357332859516
 20
943.5590535886586849
 30
0.0
 11
2823.7576357332859516
 21
941.0590535886586849
 31
0.0
  0
LINE
  5
722
  8
COMPONENTS
 10
2829.7576357332859516
 20
943.5590535886586849
 30
0.0
 11
2829.7576357332859516
 21
941.0590535886586849
 31
0.0
  0
LINE
  5
723
  8
COMPONENTS
 10
2865.2576357332859516
 20
926.3590535886589805
 30
0.0
 11
2858.2576357332859516
 21
926.3590535886589805
 31
0.0
  0
LINE
  5
724
  8
COMPONENTS
 10
2858.2576357332859516
 20
926.3590535886589805
 30
0.0
 11
2858.2576357332859516
 21
941.0590535886586849
 31
0.0
  0
LINE
  5
725
  8
COMPONENTS
 10
2858.2576357332859516
 20
941.0590535886586849
 30
0.0
 11
2865.2576357332859516
 21
941.0590535886586849
 31
0.0
  0
LINE
  5
726
  8
COMPONENTS
 10
2858.7576357332859516
 20
943.5590535886586849
 30
0.0
 11
2864.7576357332859516
 21
943.5590535886586849
 31
0.0
  0
LINE
  5
727
  8
COMPONENTS
 10
2865.2576357332859516
 20
941.0590535886586849
 30
0.0
 11
2865.2576357332859516
 21
926.3590535886589805
 31
0.0
  0
LINE
  5
728
  8
COMPONENTS
 10
2864.7576357332859516
 20
943.5590535886586849
 30
0.0
 11
2864.7576357332859516
 21
941.0590535886586849
 31
0.0
  0
LINE
  5
729
  8
COMPONENTS
 10
2858.7576357332859516
 20
943.5590535886586849
 30
0.0
 11
2858.7576357332859516
 21
941.0590535886586849
 31
0.0
  0
LINE
  5
72A
  8
COMPONENTS
 10
2854.2576357332859516
 20
926.3590535886589805
 30
0.0
 11
2847.2576357332859516
 21
926.3590535886589805
 31
0.0
  0
LINE
  5
72B
  8
COMPONENTS
 10
2847.2576357332859516
 20
926.3590535886589805
 30
0.0
 11
2847.2576357332859516
 21
941.0590535886586849
 31
0.0
  0
LINE
  5
72C
  8
COMPONENTS
 10
2847.2576357332859516
 20
941.0590535886586849
 30
0.0
 11
2854.2576357332859516
 21
941.0590535886586849
 31
0.0
  0
LINE
  5
72D
  8
COMPONENTS
 10
2847.7576357332859516
 20
943.5590535886586849
 30
0.0
 11
2853.7576357332859516
 21
943.5590535886586849
 31
0.0
  0
LINE
  5
72E
  8
COMPONENTS
 10
2854.2576357332859516
 20
941.0590535886586849
 30
0.0
 11
2854.2576357332859516
 21
926.3590535886589805
 31
0.0
  0
LINE
  5
72F
  8
COMPONENTS
 10
2853.7576357332859516
 20
943.5590535886586849
 30
0.0
 11
2853.7576357332859516
 21
941.0590535886586849
 31
0.0
  0
LINE
  5
730
  8
COMPONENTS
 10
2847.7576357332859516
 20
943.5590535886586849
 30
0.0
 11
2847.7576357332859516
 21
941.0590535886586849
 31
0.0
  0
LINE
  5
731
  8
OUTLINE
 10
2868.7576357332859516
 20
941.4590535886587759
 30
0.0
 11
2868.7576357332859516
 21
852.4590535886587759
 31
0.0
  0
ARC
  5
732
  8
OUTLINE
 10
2868.2576357332859516
 20
852.4590535886587759
 30
0.0
 40
0.5
 50
270.0
 51
0.0
  0
ARC
  5
733
  8
OUTLINE
 10
2868.2576357332859516
 20
941.4590535886587759
 30
0.0
 40
0.5
 50
0.0
 51
90.0
  0
POLYLINE
  5
734
  8
COMPONENTS
 66
     1
 10
0.0
 20
0.0
 30
0.0
 70
     1
  0
VERTEX
  5
C5A
  8
COMPONENTS
 10
2807.7576357332859516
 20
890.9590535886588896
 30
0.0
  0
VERTEX
  5
C5B
  8
COMPONENTS
 10
2809.7576357332859516
 20
890.9590535886588896
 30
0.0
  0
VERTEX
  5
C5C
  8
COMPONENTS
 10
2809.7576357332859516
 20
884.9590535886588896
 30
0.0
  0
VERTEX
  5
C5D
  8
COMPONENTS
 10
2807.7576357332859516
 20
884.9590535886588896
 30
0.0
  0
SEQEND
  5
C5E
  8
COMPONENTS
  0
POLYLINE
  5
735
  8
COMPONENTS
 66
     1
 10
0.0
 20
0.0
 30
0.0
 70
     1
  0
VERTEX
  5
C5F
  8
COMPONENTS
 10
2807.7576357332859516
 20
902.9590535886588896
 30
0.0
  0
VERTEX
  5
C60
  8
COMPONENTS
 10
2809.7576357332859516
 20
902.9590535886588896
 30
0.0
  0
VERTEX
  5
C61
  8
COMPONENTS
 10
2809.7576357332859516
 20
896.9590535886587759
 30
0.0
  0
VERTEX
  5
C62
  8
COMPONENTS
 10
2807.7576357332859516
 20
896.9590535886587759
 30
0.0
  0
SEQEND
  5
C63
  8
COMPONENTS
  0
CIRCLE
  5
736
  8
HOLES
 10
2816.7576357332859516
 20
859.9590535886588896
 30
0.0
 40
1.5
  0
CIRCLE
  5
737
  8
HOLES
 10
2860.7576357332859516
 20
859.9590535886588896
 30
0.0
 40
1.5
  0
CIRCLE
  5
738
  8
HOLES
 10
2838.7576357332859516
 20
928.6890535886589078
 30
0.0
 40
1.5
  0
DIMENSION
  5
739
  8
DIMENSIONS
  2
*D25
 10
2826.7576357332859516
 20
966.2675545793374567
 30
0.0
 11
2821.2576357332859516
 21
968.1476705411381545
 31
0.0
 70
     0
 13
2815.7576357332859516
 23
943.5590535886586849
 33
0.0
 14
2826.7576357332859516
 24
943.5590535886586849
 34
0.0
  0
DIMENSION
  5
73C
  8
DIMENSIONS
  2
*D26
 10
2838.7576357332859516
 20
966.2675545793374567
 30
0.0
 11
2832.7576357332859516
 21
968.1476705411381545
 31
0.0
 70
     0
 13
2826.7576357332859516
 23
943.5590535886586849
 33
0.0
 14
2838.7576357332859516
 24
943.5590535886586849
 34
0.0
  0
DIMENSION
  5
73F
  8
DIMENSIONS
  2
*D27
 10
2850.7576357332859516
 20
966.2675545793374567
 30
0.0
 11
2844.7576357332859516
 21
968.1476705411381545
 31
0.0
 70
     0
 13
2838.7576357332859516
 23
943.5590535886586849
 33
0.0
 14
2850.7576357332859516
 24
943.5590535886586849
 34
0.0
  0
DIMENSION
  5
742
  8
DIMENSIONS
  2
*D28
 10
2861.7576357332859516
 20
966.2675545793374567
 30
0.0
 11
2856.2576357332859516
 21
968.1476705411381545
 31
0.0
 70
     0
 13
2850.7576357332859516
 23
943.5590535886586849
 33
0.0
 14
2861.7576357332859516
 24
943.5590535886586849
 34
0.0
  0
DIMENSION
  5
745
  8
DIMENSIONS
  2
*D29
 10
2868.7576357332859516
 20
981.2336102326978562
 30
0.0
 11
2838.7576357332859516
 21
983.1350427020021243
 31
0.0
 70
     0
 13
2808.7576357332859516
 23
941.4590535886587759
 33
0.0
 14
2868.7576357332859516
 24
941.4590535886587759
 34
0.0
  0
DIMENSION
  5
748
  8
DIMENSIONS
  2
*D30
 10
2787.4263716544242016
 20
941.9590535886593443
 30
0.0
 11
2785.5300551469190395
 21
952.0255610920689833
 31
0.0
 70
     0
  1
<> MIN
 13
2807.7576357332859516
 23
936.9590535886587759
 33
0.0
 14
2809.2576357332859516
 24
941.9590535886588896
 34
0.0
 50
90.0
  0
DIMENSION
  5
74B
  8
DIMENSIONS
  2
*D24
 10
2774.4209476624128001
 20
851.9590535886592306
 30
0.0
 11
2772.5195151931079636
 21
896.9590535886585485
 31
0.0
 70
     0
 13
2809.2576357332859516
 23
941.9590535886588896
 33
0.0
 14
2809.2576357332859516
 24
851.9590535886588896
 34
0.0
 50
90.0
  0
DIMENSION
  5
74D
  8
DIMENSIONS
  2
*D31
 10
2787.4263716544242016
 20
887.9590535886593443
 30
0.0
 11
2785.5462556926217985
 21
893.9590535886583211
 31
0.0
 70
     0
 13
2807.7576357332859516
 23
899.9590535886588896
 33
0.0
 14
2807.7576357332859516
 24
887.9590535886587759
 34
0.0
 50
270.0
  0
DIMENSION
  5
805
  8
DIMENSIONS
  2
*D32
 10
2787.426371654425111
 20
871.9590535886593443
 30
0.0
 11
2785.5249391851198197
 21
879.9590535886583211
 31
0.0
 70
     0
 13
2807.7576357332859516
 23
887.9590535886587759
 33
0.0
 14
2807.7576357332859516
 24
871.9590535886587759
 34
0.0
 50
90.0
  0
DIMENSION
  5
81D
  8
DIMENSIONS
  2
*D33
 10
2787.42637165442693
 20
859.9590535886592306
 30
0.0
 11
2785.5462556926258912
 21
865.9590535886582074
 31
0.0
 70
     0
 13
2807.7576357332859516
 23
871.9590535886587759
 33
0.0
 14
2807.7576357332859516
 24
859.9590535886588896
 34
0.0
 50
90.0
  0
DIMENSION
  5
835
  8
DIMENSIONS
  2
*D34
 10
2823.882420104915127
 20
851.9590535886593443
 30
0.0
 11
2821.986103597411784
 21
841.8925460852475453
 31
0.0
 70
     0
  1
<> MIN
 13
2809.7576357332859516
 23
856.9590535886587759
 33
0.0
 14
2809.2576357332859516
 24
851.9590535886588896
 34
0.0
 50
90.0
  0
LINE
  5
878
  8
OUTLINE
 10
2979.027567502670081
 20
851.9590535886588896
 30
0.0
 11
3038.027567502670081
 21
851.9590535886588896
 31
0.0
  0
ARC
  5
879
  8
OUTLINE
 10
2979.027567502670081
 20
852.4590535886587759
 30
0.0
 40
0.5
 50
180.0
 51
270.0
  0
LINE
  5
87A
  8
OUTLINE
 10
3038.027567502670081
 20
941.9590535886588896
 30
0.0
 11
2979.027567502670081
 21
941.9590535886588896
 31
0.0
  0
LINE
  5
87B
  8
OUTLINE
 10
2978.527567502670081
 20
941.4590535886587759
 30
0.0
 11
2978.527567502670081
 21
852.4590535886587759
 31
0.0
  0
ARC
  5
87C
  8
OUTLINE
 10
2979.027567502670081
 20
941.4590535886587759
 30
0.0
 40
0.5
 50
90.0
 51
180.0
  0
POLYLINE
  5
87D
  8
COMPONENTS
 66
     1
 10
0.0
 20
0.0
 30
0.0
 70
     1
  0
VERTEX
  5
C90
  8
COMPONENTS
 10
3004.3525675026698991
 20
851.9590535886588896
 30
0.0
  0
VERTEX
  5
C91
  8
COMPONENTS
 10
3012.7025675026711724
 20
851.9590535886588896
 30
0.0
  0
VERTEX
  5
C92
  8
COMPONENTS
 10
3012.7025675026711724
 20
861.8290535886587804
 30
0.0
  0
VERTEX
  5
C93
  8
COMPONENTS
 10
3004.3525675026698991
 20
861.8290535886587804
 30
0.0
  0
SEQEND
  5
C94
  8
COMPONENTS
  0
POLYLINE
  5
87E
  8
COMPONENTS
 66
     1
 10
0.0
 20
0.0
 30
0.0
 70
     1
  0
VERTEX
  5
C95
  8
COMPONENTS
 10
3004.3525675026698991
 20
933.6890535886587941
 30
0.0
  0
VERTEX
  5
C96
  8
COMPONENTS
 10
3012.7025675026711724
 20
933.6890535886587941
 30
0.0
  0
VERTEX
  5
C97
  8
COMPONENTS
 10
3012.7025675026711724
 20
943.5590535886586849
 30
0.0
  0
VERTEX
  5
C98
  8
COMPONENTS
 10
3004.3525675026698991
 20
943.5590535886586849
 30
0.0
  0
SEQEND
  5
C99
  8
COMPONENTS
  0
POLYLINE
  5
87F
  8
COMPONENTS
 66
     1
 10
0.0
 20
0.0
 30
0.0
 70
     1
  0
VERTEX
  5
C9A
  8
COMPONENTS
 10
2989.527567502670081
 20
940.9590535886588896
 30
0.0
  0
VERTEX
  5
C9B
  8
COMPONENTS
 10
2989.527567502670081
 20
942.9590535886588896
 30
0.0
  0
VERTEX
  5
C9C
  8
COMPONENTS
 10
2983.527567502670081
 20
942.9590535886588896
 30
0.0
  0
VERTEX
  5
C9D
  8
COMPONENTS
 10
2983.527567502670081
 20
940.9590535886588896
 30
0.0
  0
SEQEND
  5
C9E
  8
COMPONENTS
  0
POLYLINE
  5
880
  8
COMPONENTS
 66
     1
 10
0.0
 20
0.0
 30
0.0
 70
     1
  0
VERTEX
  5
C9F
  8
COMPONENTS
 10
2978.527567502670081
 20
898.7090535886587759
 30
0.0
  0
VERTEX
  5
CA0
  8
COMPONENTS
 10
3003.527567502670081
 20
898.7090535886587759
 30
0.0
  0
VERTEX
  5
CA1
  8
COMPONENTS
 10
3003.527567502670081
 20
918.7090535886588896
 30
0.0
  0
VERTEX
  5
CA2
  8
COMPONENTS
 10
2978.527567502670081
 20
918.7090535886588896
 30
0.0
  0
SEQEND
  5
CA3
  8
COMPONENTS
  0
POLYLINE
  5
881
  8
COMPONENTS
 66
     1
 10
0.0
 20
0.0
 30
0.0
 70
     1
  0
VERTEX
  5
CA4
  8
COMPONENTS
 10
2977.527567502670081
 20
862.9590535886587759
 30
0.0
  0
VERTEX
  5
CA5
  8
COMPONENTS
 10
2979.527567502670081
 20
862.9590535886587759
 30
0.0
  0
VERTEX
  5
CA6
  8
COMPONENTS
 10
2979.527567502670081
 20
856.9590535886587759
 30
0.0
  0
VERTEX
  5
CA7
  8
COMPONENTS
 10
2977.527567502670081
 20
856.9590535886587759
 30
0.0
  0
SEQEND
  5
CA8
  8
COMPONENTS
  0
POLYLINE
  5
882
  8
COMPONENTS
 66
     1
 10
0.0
 20
0.0
 30
0.0
 70
     1
  0
VERTEX
  5
CA9
  8
COMPONENTS
 10
2977.527567502670081
 20
872.9590535886587759
 30
0.0
  0
VERTEX
  5
CAA
  8
COMPONENTS
 10
2979.527567502670081
 20
872.9590535886587759
 30
0.0
  0
VERTEX
  5
CAB
  8
COMPONENTS
 10
2979.527567502670081
 20
866.9590535886588896
 30
0.0
  0
VERTEX
  5
CAC
  8
COMPONENTS
 10
2977.527567502670081
 20
866.9590535886588896
 30
0.0
  0
SEQEND
  5
CAD
  8
COMPONENTS
  0
LINE
  5
883
  8
COMPONENTS
 10
2994.1275675026699901
 20
920.4590535886588896
 30
0.0
 11
2994.1275675026699901
 21
927.4590535886590033
 31
0.0
  0
LINE
  5
884
  8
COMPONENTS
 10
2994.1275675026699901
 20
927.4590535886590033
 30
0.0
 11
2979.427567502670172
 21
927.4590535886590033
 31
0.0
  0
LINE
  5
885
  8
COMPONENTS
 10
2979.427567502670172
 20
927.4590535886590033
 30
0.0
 11
2979.427567502670172
 21
920.4590535886588896
 31
0.0
  0
LINE
  5
886
  8
COMPONENTS
 10
2976.927567502670172
 20
926.9590535886591169
 30
0.0
 11
2976.927567502670172
 21
920.9590535886590033
 31
0.0
  0
LINE
  5
887
  8
COMPONENTS
 10
2979.427567502670172
 20
920.4590535886588896
 30
0.0
 11
2994.1275675026699901
 21
920.4590535886588896
 31
0.0
  0
LINE
  5
888
  8
COMPONENTS
 10
2976.927567502670172
 20
920.9590535886590033
 30
0.0
 11
2979.427567502670172
 21
920.9590535886590033
 31
0.0
  0
LINE
  5
889
  8
COMPONENTS
 10
2976.927567502670172
 20
926.9590535886591169
 30
0.0
 11
2979.427567502670172
 21
926.9590535886591169
 31
0.0
  0
LINE
  5
88A
  8
COMPONENTS
 10
2994.1275675026699901
 20
931.4590535886591169
 30
0.0
 11
2994.1275675026699901
 21
938.4590535886588896
 31
0.0
  0
LINE
  5
88B
  8
COMPONENTS
 10
2994.1275675026699901
 20
938.4590535886588896
 30
0.0
 11
2979.427567502670172
 21
938.4590535886588896
 31
0.0
  0
LINE
  5
88C
  8
COMPONENTS
 10
2979.427567502670172
 20
938.4590535886588896
 30
0.0
 11
2979.427567502670172
 21
931.4590535886591169
 31
0.0
  0
LINE
  5
88D
  8
COMPONENTS
 10
2976.927567502670172
 20
937.9590535886590033
 30
0.0
 11
2976.927567502670172
 21
931.9590535886590033
 31
0.0
  0
LINE
  5
88E
  8
COMPONENTS
 10
2979.427567502670172
 20
931.4590535886591169
 30
0.0
 11
2994.1275675026699901
 21
931.4590535886591169
 31
0.0
  0
LINE
  5
88F
  8
COMPONENTS
 10
2976.927567502670172
 20
931.9590535886590033
 30
0.0
 11
2979.427567502670172
 21
931.9590535886590033
 31
0.0
  0
LINE
  5
890
  8
COMPONENTS
 10
2976.927567502670172
 20
937.9590535886590033
 30
0.0
 11
2979.427567502670172
 21
937.9590535886590033
 31
0.0
  0
LINE
  5
891
  8
COMPONENTS
 10
3035.027567502670081
 20
926.3590535886589805
 30
0.0
 11
3028.027567502670081
 21
926.3590535886589805
 31
0.0
  0
LINE
  5
892
  8
COMPONENTS
 10
3028.027567502670081
 20
926.3590535886589805
 30
0.0
 11
3028.027567502670081
 21
941.0590535886586849
 31
0.0
  0
LINE
  5
893
  8
COMPONENTS
 10
3028.027567502670081
 20
941.0590535886586849
 30
0.0
 11
3035.027567502670081
 21
941.0590535886586849
 31
0.0
  0
LINE
  5
894
  8
COMPONENTS
 10
3028.527567502670081
 20
943.5590535886586849
 30
0.0
 11
3034.527567502670081
 21
943.5590535886586849
 31
0.0
  0
LINE
  5
895
  8
COMPONENTS
 10
3035.027567502670081
 20
941.0590535886586849
 30
0.0
 11
3035.027567502670081
 21
926.3590535886589805
 31
0.0
  0
LINE
  5
896
  8
COMPONENTS
 10
3034.527567502670081
 20
943.5590535886586849
 30
0.0
 11
3034.527567502670081
 21
941.0590535886586849
 31
0.0
  0
LINE
  5
897
  8
COMPONENTS
 10
3028.527567502670081
 20
943.5590535886586849
 30
0.0
 11
3028.527567502670081
 21
941.0590535886586849
 31
0.0
  0
LINE
  5
898
  8
COMPONENTS
 10
3024.027567502670081
 20
926.3590535886589805
 30
0.0
 11
3017.027567502670081
 21
926.3590535886589805
 31
0.0
  0
LINE
  5
899
  8
COMPONENTS
 10
3017.027567502670081
 20
926.3590535886589805
 30
0.0
 11
3017.027567502670081
 21
941.0590535886586849
 31
0.0
  0
LINE
  5
89A
  8
COMPONENTS
 10
3017.027567502670081
 20
941.0590535886586849
 30
0.0
 11
3024.027567502670081
 21
941.0590535886586849
 31
0.0
  0
LINE
  5
89B
  8
COMPONENTS
 10
3017.527567502670081
 20
943.5590535886586849
 30
0.0
 11
3023.527567502670081
 21
943.5590535886586849
 31
0.0
  0
LINE
  5
89C
  8
COMPONENTS
 10
3024.027567502670081
 20
941.0590535886586849
 30
0.0
 11
3024.027567502670081
 21
926.3590535886589805
 31
0.0
  0
LINE
  5
89D
  8
COMPONENTS
 10
3023.527567502670081
 20
943.5590535886586849
 30
0.0
 11
3023.527567502670081
 21
941.0590535886586849
 31
0.0
  0
LINE
  5
89E
  8
COMPONENTS
 10
3017.527567502670081
 20
943.5590535886586849
 30
0.0
 11
3017.527567502670081
 21
941.0590535886586849
 31
0.0
  0
LINE
  5
89F
  8
OUTLINE
 10
3038.527567502670081
 20
941.4590535886587759
 30
0.0
 11
3038.527567502670081
 21
852.4590535886587759
 31
0.0
  0
ARC
  5
8A0
  8
OUTLINE
 10
3038.027567502670081
 20
852.4590535886587759
 30
0.0
 40
0.5
 50
270.0
 51
0.0
  0
ARC
  5
8A1
  8
OUTLINE
 10
3038.027567502670081
 20
941.4590535886587759
 30
0.0
 40
0.5
 50
0.0
 51
90.0
  0
POLYLINE
  5
8A2
  8
COMPONENTS
 66
     1
 10
0.0
 20
0.0
 30
0.0
 70
     1
  0
VERTEX
  5
CAE
  8
COMPONENTS
 10
2977.527567502670081
 20
886.9590535886587759
 30
0.0
  0
VERTEX
  5
CAF
  8
COMPONENTS
 10
2979.527567502670081
 20
886.9590535886587759
 30
0.0
  0
VERTEX
  5
CB0
  8
COMPONENTS
 10
2979.527567502670081
 20
880.9590535886587759
 30
0.0
  0
VERTEX
  5
CB1
  8
COMPONENTS
 10
2977.527567502670081
 20
880.9590535886587759
 30
0.0
  0
SEQEND
  5
CB2
  8
COMPONENTS
  0
POLYLINE
  5
8A3
  8
COMPONENTS
 66
     1
 10
0.0
 20
0.0
 30
0.0
 70
     1
  0
VERTEX
  5
CB3
  8
COMPONENTS
 10
2977.527567502670081
 20
896.9590535886587759
 30
0.0
  0
VERTEX
  5
CB4
  8
COMPONENTS
 10
2979.527567502670081
 20
896.9590535886587759
 30
0.0
  0
VERTEX
  5
CB5
  8
COMPONENTS
 10
2979.527567502670081
 20
890.9590535886588896
 30
0.0
  0
VERTEX
  5
CB6
  8
COMPONENTS
 10
2977.527567502670081
 20
890.9590535886588896
 30
0.0
  0
SEQEND
  5
CB7
  8
COMPONENTS
  0
CIRCLE
  5
8A4
  8
HOLES
 10
2986.527567502670081
 20
859.9590535886588896
 30
0.0
 40
1.5
  0
CIRCLE
  5
8A5
  8
HOLES
 10
3030.527567502670081
 20
859.9590535886588896
 30
0.0
 40
1.5
  0
CIRCLE
  5
8A6
  8
HOLES
 10
3008.527567502670081
 20
928.6890535886589078
 30
0.0
 40
1.5
  0
DIMENSION
  5
8AD
  8
DIMENSIONS
  2
*D40
 10
3020.527567502670081
 20
966.2675545793374567
 30
0.0
 11
3014.527567502670081
 21
968.1476705411381545
 31
0.0
 70
     0
 13
3008.527567502670081
 23
943.5590535886586849
 33
0.0
 14
3020.527567502670081
 24
943.5590535886586849
 34
0.0
  0
DIMENSION
  5
8B0
  8
DIMENSIONS
  2
*D41
 10
3031.527567502670081
 20
966.2675545793374567
 30
0.0
 11
3026.027567502670081
 21
968.1476705411381545
 31
0.0
 70
     0
 13
3020.527567502670081
 23
943.5590535886586849
 33
0.0
 14
3031.527567502670081
 24
943.5590535886586849
 34
0.0
  0
DIMENSION
  5
8B3
  8
DIMENSIONS
  2
*D42
 10
3038.527567502670081
 20
981.2336102326978562
 30
0.0
 11
3008.527567502670081
 21
983.1350427020021243
 31
0.0
 70
     0
 13
2978.527567502670081
 23
941.4590535886587759
 33
0.0
 14
3038.527567502670081
 24
941.4590535886587759
 34
0.0
  0
DIMENSION
  5
8B9
  8
DIMENSIONS
  2
*D37
 10
2944.1908794317978391
 20
851.9590535886592306
 30
0.0
 11
2942.289446962493912
 21
896.9590535886580938
 31
0.0
 70
     0
 13
2979.027567502670081
 23
941.9590535886588896
 33
0.0
 14
2979.027567502670081
 24
851.9590535886588896
 34
0.0
 50
90.0
  0
DIMENSION
  5
8BA
  8
DIMENSIONS
  2
*D44
 10
2957.1963034238110595
 20
883.9590535886593443
 30
0.0
 11
2955.2948709545071324
 21
888.9590535886580938
 31
0.0
 70
     0
 13
2977.527567502670081
 23
893.9590535886588896
 33
0.0
 14
2977.527567502670081
 24
883.9590535886588896
 34
0.0
 50
270.0
  0
DIMENSION
  5
8BD
  8
DIMENSIONS
  2
*D45
 10
2957.196303423811969
 20
869.9590535886593443
 30
0.0
 11
2955.3161874620109302
 21
876.9590535886582074
 31
0.0
 70
     0
 13
2977.527567502670081
 23
883.9590535886588896
 33
0.0
 14
2977.527567502670081
 24
869.9590535886588896
 34
0.0
 50
90.0
  0
DIMENSION
  5
8C0
  8
DIMENSIONS
  2
*D46
 10
2957.1963034238128785
 20
859.9590535886592306
 30
0.0
 11
2955.2948709545080419
 21
864.9590535886582074
 31
0.0
 70
     0
 13
2977.527567502670081
 23
869.9590535886588896
 33
0.0
 14
2977.527567502670081
 24
859.9590535886588896
 34
0.0
 50
90.0
  0
DIMENSION
  5
8C3
  8
DIMENSIONS
  2
*D47
 10
2993.6523518743010754
 20
851.9590535886592306
 30
0.0
 11
2991.7560353667968229
 21
841.8925460852475453
 31
0.0
 70
     0
  1
<> MIN
 13
2979.527567502670081
 23
856.9590535886587759
 33
0.0
 14
2979.027567502670081
 24
851.9590535886588896
 34
0.0
 50
90.0
  0
LINE
  5
957
  8
DIMENSIONS
 10
2979.027567502670081
 20
941.9590535886588896
 30
0.0
 11
2973.9024474119541992
 21
941.9590535886588896
 31
0.0
  0
LINE
  5
958
  8
DIMENSIONS
 10
2978.527567502670081
 20
941.4590535886587759
 30
0.0
 11
2978.527567502670081
 21
944.1921278858894766
 31
0.0
  0
DIMENSION
  5
964
  8
DIMENSIONS
  2
*D48
 10
3038.527567502670081
 20
966.2675545793374567
 30
0.0
 11
3035.027567502670081
 21
968.1425545793373431
 31
0.0
 70
     0
 13
3031.527567502670081
 23
943.5590535886586849
 33
0.0
 14
3038.527567502670081
 24
941.4590535886587759
 34
0.0
  0
DIMENSION
  5
9AD
  8
DIMENSIONS
  2
*D49
 10
2978.527567502670081
 20
966.2675545793374567
 30
0.0
 11
2968.4610599992602147
 21
968.1638710868407998
 31
0.0
 70
     0
  1
<> MIN
 13
2983.527567502670081
 23
942.9590535886588896
 33
0.0
 14
2978.527567502670081
 24
941.4590535886587759
 34
0.0
  0
DIMENSION
  5
9E0
  8
DIMENSIONS
  2
*D50
 10
2957.1963034238128785
 20
934.9590535886593443
 30
0.0
 11
2955.3213034238128785
 21
938.4590535886582074
 31
0.0
 70
     0
 13
2979.027567502670081
 23
941.9590535886588896
 33
0.0
 14
2976.927567502670172
 24
934.9590535886588896
 34
0.0
 50
90.0
  0
DIMENSION
  5
A10
  8
DIMENSIONS
  2
*D52
 10
2957.1963034238151522
 20
923.959053588659458
 30
0.0
 11
2955.3161874620141134
 21
929.4590535886582074
 31
0.0
 70
     0
 13
2976.927567502670172
 23
934.9590535886588896
 33
0.0
 14
2976.927567502670172
 24
923.9590535886588896
 34
0.0
 50
90.0
  0
ENDSEC
  0
EOF
